%TF.GenerationSoftware,KiCad,Pcbnew,9.0.6*%
%TF.CreationDate,2025-11-29T00:05:12+05:00*%
%TF.ProjectId,_autosave-hackpad,5f617574-6f73-4617-9665-2d6861636b70,rev?*%
%TF.SameCoordinates,Original*%
%TF.FileFunction,Copper,L2,Bot*%
%TF.FilePolarity,Positive*%
%FSLAX46Y46*%
G04 Gerber Fmt 4.6, Leading zero omitted, Abs format (unit mm)*
G04 Created by KiCad (PCBNEW 9.0.6) date 2025-11-29 00:05:12*
%MOMM*%
%LPD*%
G01*
G04 APERTURE LIST*
%TA.AperFunction,ComponentPad*%
%ADD10C,1.700000*%
%TD*%
%TA.AperFunction,ComponentPad*%
%ADD11R,1.700000X1.700000*%
%TD*%
%TA.AperFunction,ComponentPad*%
%ADD12C,2.200000*%
%TD*%
%TA.AperFunction,ComponentPad*%
%ADD13C,1.524000*%
%TD*%
%TA.AperFunction,ComponentPad*%
%ADD14R,2.000000X2.000000*%
%TD*%
%TA.AperFunction,ComponentPad*%
%ADD15C,2.000000*%
%TD*%
%TA.AperFunction,ComponentPad*%
%ADD16R,3.200000X2.000000*%
%TD*%
G04 APERTURE END LIST*
D10*
%TO.P,VCC1,4,Pin_4*%
%TO.N,Net-(U1-GPIO6{slash}SDA)*%
X119062500Y-60722500D03*
%TO.P,VCC1,3,Pin_3*%
%TO.N,Net-(U1-GPIO7{slash}SCL)*%
X119062500Y-58182500D03*
%TO.P,VCC1,2,Pin_2*%
%TO.N,Net-(U1-3V3)*%
X119062500Y-55642500D03*
D11*
%TO.P,VCC1,1,Pin_1*%
%TO.N,/GND*%
X119062500Y-53102500D03*
%TD*%
D12*
%TO.P,SW6,1,1*%
%TO.N,Net-(U1-GPIO4{slash}MISO)*%
X164465000Y-135413750D03*
%TO.P,SW6,2,2*%
%TO.N,/GND*%
X158115000Y-137953750D03*
%TD*%
%TO.P,SW3,1,1*%
%TO.N,Net-(U1-GPIO28{slash}ADC2{slash}A2)*%
X164465000Y-111601250D03*
%TO.P,SW3,2,2*%
%TO.N,/GND*%
X158115000Y-114141250D03*
%TD*%
%TO.P,SW4,1,1*%
%TO.N,Net-(U1-GPIO29{slash}ADC3{slash}A3)*%
X116840000Y-135413750D03*
%TO.P,SW4,2,2*%
%TO.N,/GND*%
X110490000Y-137953750D03*
%TD*%
D13*
%TO.P,U1,14,VBUS*%
%TO.N,unconnected-(U1-VBUS-Pad14)*%
X91048500Y-49080000D03*
%TO.P,U1,13,GND*%
%TO.N,/GND*%
X93588500Y-49080000D03*
%TO.P,U1,12,3V3*%
%TO.N,Net-(U1-3V3)*%
X96128500Y-49080000D03*
%TO.P,U1,11,GPIO3/MOSI*%
%TO.N,Net-(U1-GPIO3{slash}MOSI)*%
X98668500Y-49080000D03*
%TO.P,U1,10,GPIO4/MISO*%
%TO.N,Net-(U1-GPIO4{slash}MISO)*%
X101208500Y-49080000D03*
%TO.P,U1,9,GPIO2/SCK*%
%TO.N,Net-(U1-GPIO2{slash}SCK)*%
X103748500Y-49080000D03*
%TO.P,U1,8,GPIO1/RX*%
%TO.N,Net-(U1-GPIO1{slash}RX)*%
X106288500Y-49080000D03*
%TO.P,U1,7,GPIO0/TX*%
%TO.N,Net-(U1-GPIO0{slash}TX)*%
X106288500Y-64320000D03*
%TO.P,U1,6,GPIO7/SCL*%
%TO.N,Net-(U1-GPIO7{slash}SCL)*%
X103748500Y-64320000D03*
%TO.P,U1,5,GPIO6/SDA*%
%TO.N,Net-(U1-GPIO6{slash}SDA)*%
X101208500Y-64320000D03*
%TO.P,U1,4,GPIO29/ADC3/A3*%
%TO.N,Net-(U1-GPIO29{slash}ADC3{slash}A3)*%
X98668500Y-64320000D03*
%TO.P,U1,3,GPIO28/ADC2/A2*%
%TO.N,Net-(U1-GPIO28{slash}ADC2{slash}A2)*%
X96128500Y-64320000D03*
%TO.P,U1,2,GPIO27/ADC1/A1*%
%TO.N,Net-(U1-GPIO27{slash}ADC1{slash}A1)*%
X93588500Y-64320000D03*
%TO.P,U1,1,GPIO26/ADC0/A0*%
%TO.N,Net-(U1-GPIO26{slash}ADC0{slash}A0)*%
X91048500Y-64320000D03*
%TD*%
D14*
%TO.P,ENC1,A,A*%
%TO.N,Net-(U1-GPIO0{slash}TX)*%
X166898750Y-54531250D03*
D15*
%TO.P,ENC1,B,B*%
%TO.N,Net-(U1-GPIO1{slash}RX)*%
X166898750Y-59531250D03*
%TO.P,ENC1,C,C*%
%TO.N,/GND*%
X166898750Y-57031250D03*
D16*
%TO.P,ENC1,MP*%
%TO.N,N/C*%
X174398750Y-51431250D03*
X174398750Y-62631250D03*
D15*
%TO.P,ENC1,S1*%
X181398750Y-59531250D03*
%TO.P,ENC1,S2*%
X181398750Y-54531250D03*
%TD*%
D12*
%TO.P,SW2,1,1*%
%TO.N,Net-(U1-GPIO27{slash}ADC1{slash}A1)*%
X140652500Y-111601250D03*
%TO.P,SW2,2,2*%
%TO.N,/GND*%
X134302500Y-114141250D03*
%TD*%
%TO.P,SW1,1,1*%
%TO.N,Net-(U1-GPIO26{slash}ADC0{slash}A0)*%
X116840000Y-111601250D03*
%TO.P,SW1,2,2*%
%TO.N,/GND*%
X110490000Y-114141250D03*
%TD*%
%TO.P,SW7,1,1*%
%TO.N,Net-(U1-GPIO3{slash}MOSI)*%
X140652500Y-85407500D03*
%TO.P,SW7,2,2*%
%TO.N,/GND*%
X134302500Y-87947500D03*
%TD*%
%TO.P,SW5,1,1*%
%TO.N,Net-(U1-GPIO2{slash}SCK)*%
X140652500Y-135413750D03*
%TO.P,SW5,2,2*%
%TO.N,/GND*%
X134302500Y-137953750D03*
%TD*%
%TA.AperFunction,Conductor*%
%TO.N,/GND*%
G36*
X185180039Y-45763935D02*
G01*
X185225794Y-45816739D01*
X185237000Y-45868250D01*
X185237000Y-154156750D01*
X185217315Y-154223789D01*
X185164511Y-154269544D01*
X185113000Y-154280750D01*
X88730750Y-154280750D01*
X88663711Y-154261065D01*
X88617956Y-154208261D01*
X88606750Y-154156750D01*
X88606750Y-140407139D01*
X108119500Y-140407139D01*
X108119500Y-140580361D01*
X108146598Y-140751451D01*
X108200127Y-140916195D01*
X108278768Y-141070538D01*
X108380586Y-141210678D01*
X108503072Y-141333164D01*
X108643212Y-141434982D01*
X108797555Y-141513623D01*
X108962299Y-141567152D01*
X109133389Y-141594250D01*
X109133390Y-141594250D01*
X109306610Y-141594250D01*
X109306611Y-141594250D01*
X109477701Y-141567152D01*
X109642445Y-141513623D01*
X109796788Y-141434982D01*
X109936928Y-141333164D01*
X110059414Y-141210678D01*
X110161232Y-141070538D01*
X110239873Y-140916195D01*
X110293402Y-140751451D01*
X110320500Y-140580361D01*
X110320500Y-140407139D01*
X110310854Y-140346236D01*
X112049500Y-140346236D01*
X112049500Y-140641263D01*
X112081571Y-140884863D01*
X112088007Y-140933743D01*
X112162212Y-141210680D01*
X112164361Y-141218701D01*
X112164364Y-141218711D01*
X112277254Y-141491250D01*
X112277258Y-141491260D01*
X112424761Y-141746743D01*
X112604352Y-141980790D01*
X112604358Y-141980797D01*
X112812952Y-142189391D01*
X112812959Y-142189397D01*
X113047006Y-142368988D01*
X113302489Y-142516491D01*
X113302490Y-142516491D01*
X113302493Y-142516493D01*
X113575048Y-142629389D01*
X113860007Y-142705743D01*
X114152494Y-142744250D01*
X114152501Y-142744250D01*
X114447499Y-142744250D01*
X114447506Y-142744250D01*
X114739993Y-142705743D01*
X115024952Y-142629389D01*
X115297507Y-142516493D01*
X115552994Y-142368988D01*
X115787042Y-142189396D01*
X115995646Y-141980792D01*
X116175238Y-141746744D01*
X116322743Y-141491257D01*
X116435639Y-141218702D01*
X116511993Y-140933743D01*
X116550500Y-140641256D01*
X116550500Y-140407139D01*
X118279500Y-140407139D01*
X118279500Y-140580361D01*
X118306598Y-140751451D01*
X118360127Y-140916195D01*
X118438768Y-141070538D01*
X118540586Y-141210678D01*
X118663072Y-141333164D01*
X118803212Y-141434982D01*
X118957555Y-141513623D01*
X119122299Y-141567152D01*
X119293389Y-141594250D01*
X119293390Y-141594250D01*
X119466610Y-141594250D01*
X119466611Y-141594250D01*
X119637701Y-141567152D01*
X119802445Y-141513623D01*
X119956788Y-141434982D01*
X120096928Y-141333164D01*
X120219414Y-141210678D01*
X120321232Y-141070538D01*
X120399873Y-140916195D01*
X120453402Y-140751451D01*
X120480500Y-140580361D01*
X120480500Y-140407139D01*
X131932000Y-140407139D01*
X131932000Y-140580361D01*
X131959098Y-140751451D01*
X132012627Y-140916195D01*
X132091268Y-141070538D01*
X132193086Y-141210678D01*
X132315572Y-141333164D01*
X132455712Y-141434982D01*
X132610055Y-141513623D01*
X132774799Y-141567152D01*
X132945889Y-141594250D01*
X132945890Y-141594250D01*
X133119110Y-141594250D01*
X133119111Y-141594250D01*
X133290201Y-141567152D01*
X133454945Y-141513623D01*
X133609288Y-141434982D01*
X133749428Y-141333164D01*
X133871914Y-141210678D01*
X133973732Y-141070538D01*
X134052373Y-140916195D01*
X134105902Y-140751451D01*
X134133000Y-140580361D01*
X134133000Y-140407139D01*
X134123354Y-140346236D01*
X135862000Y-140346236D01*
X135862000Y-140641263D01*
X135894071Y-140884863D01*
X135900507Y-140933743D01*
X135974712Y-141210680D01*
X135976861Y-141218701D01*
X135976864Y-141218711D01*
X136089754Y-141491250D01*
X136089758Y-141491260D01*
X136237261Y-141746743D01*
X136416852Y-141980790D01*
X136416858Y-141980797D01*
X136625452Y-142189391D01*
X136625459Y-142189397D01*
X136859506Y-142368988D01*
X137114989Y-142516491D01*
X137114990Y-142516491D01*
X137114993Y-142516493D01*
X137387548Y-142629389D01*
X137672507Y-142705743D01*
X137964994Y-142744250D01*
X137965001Y-142744250D01*
X138259999Y-142744250D01*
X138260006Y-142744250D01*
X138552493Y-142705743D01*
X138837452Y-142629389D01*
X139110007Y-142516493D01*
X139365494Y-142368988D01*
X139599542Y-142189396D01*
X139808146Y-141980792D01*
X139987738Y-141746744D01*
X140135243Y-141491257D01*
X140248139Y-141218702D01*
X140324493Y-140933743D01*
X140363000Y-140641256D01*
X140363000Y-140407139D01*
X142092000Y-140407139D01*
X142092000Y-140580361D01*
X142119098Y-140751451D01*
X142172627Y-140916195D01*
X142251268Y-141070538D01*
X142353086Y-141210678D01*
X142475572Y-141333164D01*
X142615712Y-141434982D01*
X142770055Y-141513623D01*
X142934799Y-141567152D01*
X143105889Y-141594250D01*
X143105890Y-141594250D01*
X143279110Y-141594250D01*
X143279111Y-141594250D01*
X143450201Y-141567152D01*
X143614945Y-141513623D01*
X143769288Y-141434982D01*
X143909428Y-141333164D01*
X144031914Y-141210678D01*
X144133732Y-141070538D01*
X144212373Y-140916195D01*
X144265902Y-140751451D01*
X144293000Y-140580361D01*
X144293000Y-140407139D01*
X155744500Y-140407139D01*
X155744500Y-140580361D01*
X155771598Y-140751451D01*
X155825127Y-140916195D01*
X155903768Y-141070538D01*
X156005586Y-141210678D01*
X156128072Y-141333164D01*
X156268212Y-141434982D01*
X156422555Y-141513623D01*
X156587299Y-141567152D01*
X156758389Y-141594250D01*
X156758390Y-141594250D01*
X156931610Y-141594250D01*
X156931611Y-141594250D01*
X157102701Y-141567152D01*
X157267445Y-141513623D01*
X157421788Y-141434982D01*
X157561928Y-141333164D01*
X157684414Y-141210678D01*
X157786232Y-141070538D01*
X157864873Y-140916195D01*
X157918402Y-140751451D01*
X157945500Y-140580361D01*
X157945500Y-140407139D01*
X157935854Y-140346236D01*
X159674500Y-140346236D01*
X159674500Y-140641263D01*
X159706571Y-140884863D01*
X159713007Y-140933743D01*
X159787212Y-141210680D01*
X159789361Y-141218701D01*
X159789364Y-141218711D01*
X159902254Y-141491250D01*
X159902258Y-141491260D01*
X160049761Y-141746743D01*
X160229352Y-141980790D01*
X160229358Y-141980797D01*
X160437952Y-142189391D01*
X160437959Y-142189397D01*
X160672006Y-142368988D01*
X160927489Y-142516491D01*
X160927490Y-142516491D01*
X160927493Y-142516493D01*
X161200048Y-142629389D01*
X161485007Y-142705743D01*
X161777494Y-142744250D01*
X161777501Y-142744250D01*
X162072499Y-142744250D01*
X162072506Y-142744250D01*
X162364993Y-142705743D01*
X162649952Y-142629389D01*
X162922507Y-142516493D01*
X163177994Y-142368988D01*
X163412042Y-142189396D01*
X163620646Y-141980792D01*
X163800238Y-141746744D01*
X163947743Y-141491257D01*
X164060639Y-141218702D01*
X164136993Y-140933743D01*
X164175500Y-140641256D01*
X164175500Y-140407139D01*
X165904500Y-140407139D01*
X165904500Y-140580361D01*
X165931598Y-140751451D01*
X165985127Y-140916195D01*
X166063768Y-141070538D01*
X166165586Y-141210678D01*
X166288072Y-141333164D01*
X166428212Y-141434982D01*
X166582555Y-141513623D01*
X166747299Y-141567152D01*
X166918389Y-141594250D01*
X166918390Y-141594250D01*
X167091610Y-141594250D01*
X167091611Y-141594250D01*
X167262701Y-141567152D01*
X167427445Y-141513623D01*
X167581788Y-141434982D01*
X167721928Y-141333164D01*
X167844414Y-141210678D01*
X167946232Y-141070538D01*
X168024873Y-140916195D01*
X168078402Y-140751451D01*
X168105500Y-140580361D01*
X168105500Y-140407139D01*
X168078402Y-140236049D01*
X168024873Y-140071305D01*
X167946232Y-139916962D01*
X167844414Y-139776822D01*
X167721928Y-139654336D01*
X167581788Y-139552518D01*
X167427445Y-139473877D01*
X167262701Y-139420348D01*
X167262699Y-139420347D01*
X167262698Y-139420347D01*
X167131271Y-139399531D01*
X167091611Y-139393250D01*
X166918389Y-139393250D01*
X166878728Y-139399531D01*
X166747302Y-139420347D01*
X166582552Y-139473878D01*
X166428211Y-139552518D01*
X166372115Y-139593275D01*
X166288072Y-139654336D01*
X166288070Y-139654338D01*
X166288069Y-139654338D01*
X166165588Y-139776819D01*
X166165588Y-139776820D01*
X166165586Y-139776822D01*
X166121859Y-139837006D01*
X166063768Y-139916961D01*
X165985128Y-140071302D01*
X165931597Y-140236052D01*
X165904500Y-140407139D01*
X164175500Y-140407139D01*
X164175500Y-140346244D01*
X164136993Y-140053757D01*
X164060639Y-139768798D01*
X163947743Y-139496243D01*
X163897604Y-139409400D01*
X163800238Y-139240756D01*
X163620647Y-139006709D01*
X163620641Y-139006702D01*
X163412047Y-138798108D01*
X163412040Y-138798102D01*
X163177993Y-138618511D01*
X162922510Y-138471008D01*
X162922500Y-138471004D01*
X162649961Y-138358114D01*
X162649954Y-138358112D01*
X162649952Y-138358111D01*
X162364993Y-138281757D01*
X162316113Y-138275321D01*
X162072513Y-138243250D01*
X162072506Y-138243250D01*
X161777494Y-138243250D01*
X161777486Y-138243250D01*
X161499085Y-138279903D01*
X161485007Y-138281757D01*
X161310861Y-138328419D01*
X161200048Y-138358111D01*
X161200038Y-138358114D01*
X160927499Y-138471004D01*
X160927489Y-138471008D01*
X160672006Y-138618511D01*
X160437959Y-138798102D01*
X160437952Y-138798108D01*
X160229358Y-139006702D01*
X160229352Y-139006709D01*
X160049761Y-139240756D01*
X159902258Y-139496239D01*
X159902254Y-139496249D01*
X159789364Y-139768788D01*
X159789361Y-139768798D01*
X159713008Y-140053754D01*
X159713006Y-140053765D01*
X159674500Y-140346236D01*
X157935854Y-140346236D01*
X157918402Y-140236049D01*
X157864873Y-140071305D01*
X157786232Y-139916962D01*
X157684414Y-139776822D01*
X157631882Y-139724290D01*
X157598397Y-139662967D01*
X157603381Y-139593275D01*
X157645253Y-139537342D01*
X157710717Y-139512925D01*
X157738961Y-139514136D01*
X157989072Y-139553750D01*
X158240928Y-139553750D01*
X158489669Y-139514352D01*
X158729184Y-139436530D01*
X158953575Y-139322196D01*
X158953581Y-139322192D01*
X159055697Y-139248000D01*
X159055698Y-139248000D01*
X158439025Y-138631328D01*
X158470258Y-138618391D01*
X158593097Y-138536313D01*
X158697563Y-138431847D01*
X158779641Y-138309008D01*
X158792578Y-138277775D01*
X159409250Y-138894448D01*
X159409250Y-138894447D01*
X159483442Y-138792331D01*
X159483446Y-138792325D01*
X159597780Y-138567934D01*
X159675602Y-138328419D01*
X159715000Y-138079678D01*
X159715000Y-137827821D01*
X159675602Y-137579080D01*
X159597780Y-137339565D01*
X159483442Y-137115166D01*
X159409250Y-137013051D01*
X159409250Y-137013050D01*
X158792577Y-137629723D01*
X158779641Y-137598492D01*
X158697563Y-137475653D01*
X158593097Y-137371187D01*
X158470258Y-137289109D01*
X158439024Y-137276171D01*
X159055698Y-136659498D01*
X158953583Y-136585307D01*
X158729184Y-136470969D01*
X158489669Y-136393147D01*
X158240928Y-136353750D01*
X157989072Y-136353750D01*
X157740330Y-136393147D01*
X157500815Y-136470969D01*
X157276413Y-136585309D01*
X157174301Y-136659497D01*
X157174300Y-136659498D01*
X157790974Y-137276171D01*
X157759742Y-137289109D01*
X157636903Y-137371187D01*
X157532437Y-137475653D01*
X157450359Y-137598492D01*
X157437421Y-137629724D01*
X156820748Y-137013050D01*
X156820747Y-137013051D01*
X156746559Y-137115163D01*
X156632219Y-137339565D01*
X156554397Y-137579080D01*
X156515000Y-137827821D01*
X156515000Y-138079678D01*
X156554397Y-138328419D01*
X156632219Y-138567934D01*
X156746557Y-138792333D01*
X156820748Y-138894447D01*
X156820748Y-138894448D01*
X157437421Y-138277774D01*
X157450359Y-138309008D01*
X157532437Y-138431847D01*
X157636903Y-138536313D01*
X157759742Y-138618391D01*
X157790974Y-138631327D01*
X157174300Y-139248000D01*
X157176598Y-139277199D01*
X157162233Y-139345577D01*
X157113181Y-139395333D01*
X157045016Y-139410671D01*
X157033583Y-139409400D01*
X156931611Y-139393250D01*
X156758389Y-139393250D01*
X156718728Y-139399531D01*
X156587302Y-139420347D01*
X156422552Y-139473878D01*
X156268211Y-139552518D01*
X156212115Y-139593275D01*
X156128072Y-139654336D01*
X156128070Y-139654338D01*
X156128069Y-139654338D01*
X156005588Y-139776819D01*
X156005588Y-139776820D01*
X156005586Y-139776822D01*
X155961859Y-139837006D01*
X155903768Y-139916961D01*
X155825128Y-140071302D01*
X155771597Y-140236052D01*
X155744500Y-140407139D01*
X144293000Y-140407139D01*
X144265902Y-140236049D01*
X144212373Y-140071305D01*
X144133732Y-139916962D01*
X144031914Y-139776822D01*
X143909428Y-139654336D01*
X143769288Y-139552518D01*
X143614945Y-139473877D01*
X143450201Y-139420348D01*
X143450199Y-139420347D01*
X143450198Y-139420347D01*
X143318771Y-139399531D01*
X143279111Y-139393250D01*
X143105889Y-139393250D01*
X143066228Y-139399531D01*
X142934802Y-139420347D01*
X142770052Y-139473878D01*
X142615711Y-139552518D01*
X142559615Y-139593275D01*
X142475572Y-139654336D01*
X142475570Y-139654338D01*
X142475569Y-139654338D01*
X142353088Y-139776819D01*
X142353088Y-139776820D01*
X142353086Y-139776822D01*
X142309359Y-139837006D01*
X142251268Y-139916961D01*
X142172628Y-140071302D01*
X142119097Y-140236052D01*
X142092000Y-140407139D01*
X140363000Y-140407139D01*
X140363000Y-140346244D01*
X140324493Y-140053757D01*
X140248139Y-139768798D01*
X140135243Y-139496243D01*
X140085104Y-139409400D01*
X139987738Y-139240756D01*
X139808147Y-139006709D01*
X139808141Y-139006702D01*
X139599547Y-138798108D01*
X139599540Y-138798102D01*
X139365493Y-138618511D01*
X139110010Y-138471008D01*
X139110000Y-138471004D01*
X138837461Y-138358114D01*
X138837454Y-138358112D01*
X138837452Y-138358111D01*
X138552493Y-138281757D01*
X138503613Y-138275321D01*
X138260013Y-138243250D01*
X138260006Y-138243250D01*
X137964994Y-138243250D01*
X137964986Y-138243250D01*
X137686585Y-138279903D01*
X137672507Y-138281757D01*
X137498361Y-138328419D01*
X137387548Y-138358111D01*
X137387538Y-138358114D01*
X137114999Y-138471004D01*
X137114989Y-138471008D01*
X136859506Y-138618511D01*
X136625459Y-138798102D01*
X136625452Y-138798108D01*
X136416858Y-139006702D01*
X136416852Y-139006709D01*
X136237261Y-139240756D01*
X136089758Y-139496239D01*
X136089754Y-139496249D01*
X135976864Y-139768788D01*
X135976861Y-139768798D01*
X135900508Y-140053754D01*
X135900506Y-140053765D01*
X135862000Y-140346236D01*
X134123354Y-140346236D01*
X134105902Y-140236049D01*
X134052373Y-140071305D01*
X133973732Y-139916962D01*
X133871914Y-139776822D01*
X133819382Y-139724290D01*
X133785897Y-139662967D01*
X133790881Y-139593275D01*
X133832753Y-139537342D01*
X133898217Y-139512925D01*
X133926461Y-139514136D01*
X134176572Y-139553750D01*
X134428428Y-139553750D01*
X134677169Y-139514352D01*
X134916684Y-139436530D01*
X135141075Y-139322196D01*
X135141081Y-139322192D01*
X135243197Y-139248000D01*
X135243198Y-139248000D01*
X134626525Y-138631328D01*
X134657758Y-138618391D01*
X134780597Y-138536313D01*
X134885063Y-138431847D01*
X134967141Y-138309008D01*
X134980078Y-138277775D01*
X135596750Y-138894448D01*
X135596750Y-138894447D01*
X135670942Y-138792331D01*
X135670946Y-138792325D01*
X135785280Y-138567934D01*
X135863102Y-138328419D01*
X135902500Y-138079678D01*
X135902500Y-137827821D01*
X135863102Y-137579080D01*
X135785280Y-137339565D01*
X135670942Y-137115166D01*
X135596750Y-137013051D01*
X135596750Y-137013050D01*
X134980077Y-137629723D01*
X134967141Y-137598492D01*
X134885063Y-137475653D01*
X134780597Y-137371187D01*
X134657758Y-137289109D01*
X134626524Y-137276171D01*
X135243198Y-136659498D01*
X135141083Y-136585307D01*
X134916684Y-136470969D01*
X134677169Y-136393147D01*
X134428428Y-136353750D01*
X134176572Y-136353750D01*
X133927830Y-136393147D01*
X133688315Y-136470969D01*
X133463913Y-136585309D01*
X133361801Y-136659497D01*
X133361800Y-136659498D01*
X133978474Y-137276171D01*
X133947242Y-137289109D01*
X133824403Y-137371187D01*
X133719937Y-137475653D01*
X133637859Y-137598492D01*
X133624921Y-137629724D01*
X133008248Y-137013050D01*
X133008247Y-137013051D01*
X132934059Y-137115163D01*
X132819719Y-137339565D01*
X132741897Y-137579080D01*
X132702500Y-137827821D01*
X132702500Y-138079678D01*
X132741897Y-138328419D01*
X132819719Y-138567934D01*
X132934057Y-138792333D01*
X133008248Y-138894447D01*
X133008248Y-138894448D01*
X133624921Y-138277774D01*
X133637859Y-138309008D01*
X133719937Y-138431847D01*
X133824403Y-138536313D01*
X133947242Y-138618391D01*
X133978474Y-138631327D01*
X133361800Y-139248000D01*
X133364098Y-139277199D01*
X133349733Y-139345577D01*
X133300681Y-139395333D01*
X133232516Y-139410671D01*
X133221083Y-139409400D01*
X133119111Y-139393250D01*
X132945889Y-139393250D01*
X132906228Y-139399531D01*
X132774802Y-139420347D01*
X132610052Y-139473878D01*
X132455711Y-139552518D01*
X132399615Y-139593275D01*
X132315572Y-139654336D01*
X132315570Y-139654338D01*
X132315569Y-139654338D01*
X132193088Y-139776819D01*
X132193088Y-139776820D01*
X132193086Y-139776822D01*
X132149359Y-139837006D01*
X132091268Y-139916961D01*
X132012628Y-140071302D01*
X131959097Y-140236052D01*
X131932000Y-140407139D01*
X120480500Y-140407139D01*
X120453402Y-140236049D01*
X120399873Y-140071305D01*
X120321232Y-139916962D01*
X120219414Y-139776822D01*
X120096928Y-139654336D01*
X119956788Y-139552518D01*
X119802445Y-139473877D01*
X119637701Y-139420348D01*
X119637699Y-139420347D01*
X119637698Y-139420347D01*
X119506271Y-139399531D01*
X119466611Y-139393250D01*
X119293389Y-139393250D01*
X119253728Y-139399531D01*
X119122302Y-139420347D01*
X118957552Y-139473878D01*
X118803211Y-139552518D01*
X118747115Y-139593275D01*
X118663072Y-139654336D01*
X118663070Y-139654338D01*
X118663069Y-139654338D01*
X118540588Y-139776819D01*
X118540588Y-139776820D01*
X118540586Y-139776822D01*
X118496859Y-139837006D01*
X118438768Y-139916961D01*
X118360128Y-140071302D01*
X118306597Y-140236052D01*
X118279500Y-140407139D01*
X116550500Y-140407139D01*
X116550500Y-140346244D01*
X116511993Y-140053757D01*
X116435639Y-139768798D01*
X116322743Y-139496243D01*
X116272604Y-139409400D01*
X116175238Y-139240756D01*
X115995647Y-139006709D01*
X115995641Y-139006702D01*
X115787047Y-138798108D01*
X115787040Y-138798102D01*
X115552993Y-138618511D01*
X115297510Y-138471008D01*
X115297500Y-138471004D01*
X115024961Y-138358114D01*
X115024954Y-138358112D01*
X115024952Y-138358111D01*
X114739993Y-138281757D01*
X114691113Y-138275321D01*
X114447513Y-138243250D01*
X114447506Y-138243250D01*
X114152494Y-138243250D01*
X114152486Y-138243250D01*
X113874085Y-138279903D01*
X113860007Y-138281757D01*
X113685861Y-138328419D01*
X113575048Y-138358111D01*
X113575038Y-138358114D01*
X113302499Y-138471004D01*
X113302489Y-138471008D01*
X113047006Y-138618511D01*
X112812959Y-138798102D01*
X112812952Y-138798108D01*
X112604358Y-139006702D01*
X112604352Y-139006709D01*
X112424761Y-139240756D01*
X112277258Y-139496239D01*
X112277254Y-139496249D01*
X112164364Y-139768788D01*
X112164361Y-139768798D01*
X112088008Y-140053754D01*
X112088006Y-140053765D01*
X112049500Y-140346236D01*
X110310854Y-140346236D01*
X110293402Y-140236049D01*
X110239873Y-140071305D01*
X110161232Y-139916962D01*
X110059414Y-139776822D01*
X110006882Y-139724290D01*
X109973397Y-139662967D01*
X109978381Y-139593275D01*
X110020253Y-139537342D01*
X110085717Y-139512925D01*
X110113961Y-139514136D01*
X110364072Y-139553750D01*
X110615928Y-139553750D01*
X110864669Y-139514352D01*
X111104184Y-139436530D01*
X111328575Y-139322196D01*
X111328581Y-139322192D01*
X111430697Y-139248000D01*
X111430698Y-139248000D01*
X110814025Y-138631328D01*
X110845258Y-138618391D01*
X110968097Y-138536313D01*
X111072563Y-138431847D01*
X111154641Y-138309008D01*
X111167577Y-138277775D01*
X111784250Y-138894448D01*
X111784250Y-138894447D01*
X111858442Y-138792331D01*
X111858446Y-138792325D01*
X111972780Y-138567934D01*
X112050602Y-138328419D01*
X112090000Y-138079678D01*
X112090000Y-137827821D01*
X112050602Y-137579080D01*
X111972780Y-137339565D01*
X111858442Y-137115166D01*
X111784250Y-137013051D01*
X111784250Y-137013050D01*
X111167577Y-137629723D01*
X111154641Y-137598492D01*
X111072563Y-137475653D01*
X110968097Y-137371187D01*
X110845258Y-137289109D01*
X110814024Y-137276171D01*
X111430698Y-136659498D01*
X111328583Y-136585307D01*
X111104184Y-136470969D01*
X110864669Y-136393147D01*
X110615928Y-136353750D01*
X110364072Y-136353750D01*
X110115330Y-136393147D01*
X109875815Y-136470969D01*
X109651413Y-136585309D01*
X109549301Y-136659497D01*
X109549300Y-136659498D01*
X110165974Y-137276171D01*
X110134742Y-137289109D01*
X110011903Y-137371187D01*
X109907437Y-137475653D01*
X109825359Y-137598492D01*
X109812421Y-137629724D01*
X109195748Y-137013050D01*
X109195747Y-137013051D01*
X109121559Y-137115163D01*
X109007219Y-137339565D01*
X108929397Y-137579080D01*
X108890000Y-137827821D01*
X108890000Y-138079678D01*
X108929397Y-138328419D01*
X109007219Y-138567934D01*
X109121557Y-138792333D01*
X109195748Y-138894447D01*
X109195748Y-138894448D01*
X109812421Y-138277774D01*
X109825359Y-138309008D01*
X109907437Y-138431847D01*
X110011903Y-138536313D01*
X110134742Y-138618391D01*
X110165974Y-138631327D01*
X109549300Y-139248000D01*
X109551598Y-139277199D01*
X109537233Y-139345577D01*
X109488181Y-139395333D01*
X109420016Y-139410671D01*
X109408583Y-139409400D01*
X109306611Y-139393250D01*
X109133389Y-139393250D01*
X109093728Y-139399531D01*
X108962302Y-139420347D01*
X108797552Y-139473878D01*
X108643211Y-139552518D01*
X108587115Y-139593275D01*
X108503072Y-139654336D01*
X108503070Y-139654338D01*
X108503069Y-139654338D01*
X108380588Y-139776819D01*
X108380588Y-139776820D01*
X108380586Y-139776822D01*
X108336859Y-139837006D01*
X108278768Y-139916961D01*
X108200128Y-140071302D01*
X108146597Y-140236052D01*
X108119500Y-140407139D01*
X88606750Y-140407139D01*
X88606750Y-135287788D01*
X115239500Y-135287788D01*
X115239500Y-135539711D01*
X115278910Y-135788535D01*
X115356760Y-136028133D01*
X115471132Y-136252598D01*
X115619201Y-136456399D01*
X115619205Y-136456404D01*
X115797345Y-136634544D01*
X115797350Y-136634548D01*
X115975117Y-136763702D01*
X116001155Y-136782620D01*
X116144184Y-136855497D01*
X116225616Y-136896989D01*
X116225618Y-136896989D01*
X116225621Y-136896991D01*
X116465215Y-136974840D01*
X116714038Y-137014250D01*
X116714039Y-137014250D01*
X116965961Y-137014250D01*
X116965962Y-137014250D01*
X117214785Y-136974840D01*
X117454379Y-136896991D01*
X117678845Y-136782620D01*
X117882656Y-136634543D01*
X118060793Y-136456406D01*
X118208870Y-136252595D01*
X118323241Y-136028129D01*
X118401090Y-135788535D01*
X118440500Y-135539712D01*
X118440500Y-135287788D01*
X139052000Y-135287788D01*
X139052000Y-135539711D01*
X139091410Y-135788535D01*
X139169260Y-136028133D01*
X139283632Y-136252598D01*
X139431701Y-136456399D01*
X139431705Y-136456404D01*
X139609845Y-136634544D01*
X139609850Y-136634548D01*
X139787617Y-136763702D01*
X139813655Y-136782620D01*
X139956684Y-136855497D01*
X140038116Y-136896989D01*
X140038118Y-136896989D01*
X140038121Y-136896991D01*
X140277715Y-136974840D01*
X140526538Y-137014250D01*
X140526539Y-137014250D01*
X140778461Y-137014250D01*
X140778462Y-137014250D01*
X141027285Y-136974840D01*
X141266879Y-136896991D01*
X141491345Y-136782620D01*
X141695156Y-136634543D01*
X141873293Y-136456406D01*
X142021370Y-136252595D01*
X142135741Y-136028129D01*
X142213590Y-135788535D01*
X142253000Y-135539712D01*
X142253000Y-135287788D01*
X162864500Y-135287788D01*
X162864500Y-135539711D01*
X162903910Y-135788535D01*
X162981760Y-136028133D01*
X163096132Y-136252598D01*
X163244201Y-136456399D01*
X163244205Y-136456404D01*
X163422345Y-136634544D01*
X163422350Y-136634548D01*
X163600117Y-136763702D01*
X163626155Y-136782620D01*
X163769184Y-136855497D01*
X163850616Y-136896989D01*
X163850618Y-136896989D01*
X163850621Y-136896991D01*
X164090215Y-136974840D01*
X164339038Y-137014250D01*
X164339039Y-137014250D01*
X164590961Y-137014250D01*
X164590962Y-137014250D01*
X164839785Y-136974840D01*
X165079379Y-136896991D01*
X165303845Y-136782620D01*
X165507656Y-136634543D01*
X165685793Y-136456406D01*
X165833870Y-136252595D01*
X165948241Y-136028129D01*
X166026090Y-135788535D01*
X166065500Y-135539712D01*
X166065500Y-135287788D01*
X166026090Y-135038965D01*
X165948241Y-134799371D01*
X165948239Y-134799368D01*
X165948239Y-134799366D01*
X165906747Y-134717934D01*
X165833870Y-134574905D01*
X165814952Y-134548867D01*
X165685798Y-134371100D01*
X165685794Y-134371095D01*
X165507654Y-134192955D01*
X165507649Y-134192951D01*
X165303848Y-134044882D01*
X165303847Y-134044881D01*
X165303845Y-134044880D01*
X165233747Y-134009163D01*
X165079383Y-133930510D01*
X164839785Y-133852660D01*
X164590962Y-133813250D01*
X164339038Y-133813250D01*
X164214626Y-133832955D01*
X164090214Y-133852660D01*
X163850616Y-133930510D01*
X163626151Y-134044882D01*
X163422350Y-134192951D01*
X163422345Y-134192955D01*
X163244205Y-134371095D01*
X163244201Y-134371100D01*
X163096132Y-134574901D01*
X162981760Y-134799366D01*
X162903910Y-135038964D01*
X162864500Y-135287788D01*
X142253000Y-135287788D01*
X142213590Y-135038965D01*
X142135741Y-134799371D01*
X142135739Y-134799368D01*
X142135739Y-134799366D01*
X142094247Y-134717934D01*
X142021370Y-134574905D01*
X142002452Y-134548867D01*
X141873298Y-134371100D01*
X141873294Y-134371095D01*
X141695154Y-134192955D01*
X141695149Y-134192951D01*
X141491348Y-134044882D01*
X141491347Y-134044881D01*
X141491345Y-134044880D01*
X141421247Y-134009163D01*
X141266883Y-133930510D01*
X141027285Y-133852660D01*
X140778462Y-133813250D01*
X140526538Y-133813250D01*
X140402126Y-133832955D01*
X140277714Y-133852660D01*
X140038116Y-133930510D01*
X139813651Y-134044882D01*
X139609850Y-134192951D01*
X139609845Y-134192955D01*
X139431705Y-134371095D01*
X139431701Y-134371100D01*
X139283632Y-134574901D01*
X139169260Y-134799366D01*
X139091410Y-135038964D01*
X139052000Y-135287788D01*
X118440500Y-135287788D01*
X118401090Y-135038965D01*
X118323241Y-134799371D01*
X118323239Y-134799368D01*
X118323239Y-134799366D01*
X118281747Y-134717934D01*
X118208870Y-134574905D01*
X118189952Y-134548867D01*
X118060798Y-134371100D01*
X118060794Y-134371095D01*
X117882654Y-134192955D01*
X117882649Y-134192951D01*
X117678848Y-134044882D01*
X117678847Y-134044881D01*
X117678845Y-134044880D01*
X117608747Y-134009163D01*
X117454383Y-133930510D01*
X117214785Y-133852660D01*
X116965962Y-133813250D01*
X116714038Y-133813250D01*
X116589626Y-133832955D01*
X116465214Y-133852660D01*
X116225616Y-133930510D01*
X116001151Y-134044882D01*
X115797350Y-134192951D01*
X115797345Y-134192955D01*
X115619205Y-134371095D01*
X115619201Y-134371100D01*
X115471132Y-134574901D01*
X115356760Y-134799366D01*
X115278910Y-135038964D01*
X115239500Y-135287788D01*
X88606750Y-135287788D01*
X88606750Y-116594639D01*
X108119500Y-116594639D01*
X108119500Y-116767861D01*
X108146598Y-116938951D01*
X108200127Y-117103695D01*
X108278768Y-117258038D01*
X108380586Y-117398178D01*
X108503072Y-117520664D01*
X108643212Y-117622482D01*
X108797555Y-117701123D01*
X108962299Y-117754652D01*
X109133389Y-117781750D01*
X109133390Y-117781750D01*
X109306610Y-117781750D01*
X109306611Y-117781750D01*
X109477701Y-117754652D01*
X109642445Y-117701123D01*
X109796788Y-117622482D01*
X109936928Y-117520664D01*
X110059414Y-117398178D01*
X110161232Y-117258038D01*
X110239873Y-117103695D01*
X110293402Y-116938951D01*
X110320500Y-116767861D01*
X110320500Y-116594639D01*
X110310854Y-116533736D01*
X112049500Y-116533736D01*
X112049500Y-116828763D01*
X112081571Y-117072363D01*
X112088007Y-117121243D01*
X112162212Y-117398180D01*
X112164361Y-117406201D01*
X112164364Y-117406211D01*
X112277254Y-117678750D01*
X112277258Y-117678760D01*
X112424761Y-117934243D01*
X112604352Y-118168290D01*
X112604358Y-118168297D01*
X112812952Y-118376891D01*
X112812959Y-118376897D01*
X113047006Y-118556488D01*
X113302489Y-118703991D01*
X113302490Y-118703991D01*
X113302493Y-118703993D01*
X113575048Y-118816889D01*
X113860007Y-118893243D01*
X114152494Y-118931750D01*
X114152501Y-118931750D01*
X114447499Y-118931750D01*
X114447506Y-118931750D01*
X114739993Y-118893243D01*
X115024952Y-118816889D01*
X115297507Y-118703993D01*
X115552994Y-118556488D01*
X115787042Y-118376896D01*
X115995646Y-118168292D01*
X116175238Y-117934244D01*
X116322743Y-117678757D01*
X116435639Y-117406202D01*
X116511993Y-117121243D01*
X116550500Y-116828756D01*
X116550500Y-116594639D01*
X118279500Y-116594639D01*
X118279500Y-116767861D01*
X118306598Y-116938951D01*
X118360127Y-117103695D01*
X118438768Y-117258038D01*
X118540586Y-117398178D01*
X118663072Y-117520664D01*
X118803212Y-117622482D01*
X118957555Y-117701123D01*
X119122299Y-117754652D01*
X119293389Y-117781750D01*
X119293390Y-117781750D01*
X119466610Y-117781750D01*
X119466611Y-117781750D01*
X119637701Y-117754652D01*
X119802445Y-117701123D01*
X119956788Y-117622482D01*
X120096928Y-117520664D01*
X120219414Y-117398178D01*
X120321232Y-117258038D01*
X120399873Y-117103695D01*
X120453402Y-116938951D01*
X120480500Y-116767861D01*
X120480500Y-116594639D01*
X131932000Y-116594639D01*
X131932000Y-116767861D01*
X131959098Y-116938951D01*
X132012627Y-117103695D01*
X132091268Y-117258038D01*
X132193086Y-117398178D01*
X132315572Y-117520664D01*
X132455712Y-117622482D01*
X132610055Y-117701123D01*
X132774799Y-117754652D01*
X132945889Y-117781750D01*
X132945890Y-117781750D01*
X133119110Y-117781750D01*
X133119111Y-117781750D01*
X133290201Y-117754652D01*
X133454945Y-117701123D01*
X133609288Y-117622482D01*
X133749428Y-117520664D01*
X133871914Y-117398178D01*
X133973732Y-117258038D01*
X134052373Y-117103695D01*
X134105902Y-116938951D01*
X134133000Y-116767861D01*
X134133000Y-116594639D01*
X134123354Y-116533736D01*
X135862000Y-116533736D01*
X135862000Y-116828763D01*
X135894071Y-117072363D01*
X135900507Y-117121243D01*
X135974712Y-117398180D01*
X135976861Y-117406201D01*
X135976864Y-117406211D01*
X136089754Y-117678750D01*
X136089758Y-117678760D01*
X136237261Y-117934243D01*
X136416852Y-118168290D01*
X136416858Y-118168297D01*
X136625452Y-118376891D01*
X136625459Y-118376897D01*
X136859506Y-118556488D01*
X137114989Y-118703991D01*
X137114990Y-118703991D01*
X137114993Y-118703993D01*
X137387548Y-118816889D01*
X137672507Y-118893243D01*
X137964994Y-118931750D01*
X137965001Y-118931750D01*
X138259999Y-118931750D01*
X138260006Y-118931750D01*
X138552493Y-118893243D01*
X138837452Y-118816889D01*
X139110007Y-118703993D01*
X139365494Y-118556488D01*
X139599542Y-118376896D01*
X139808146Y-118168292D01*
X139987738Y-117934244D01*
X140135243Y-117678757D01*
X140248139Y-117406202D01*
X140324493Y-117121243D01*
X140363000Y-116828756D01*
X140363000Y-116594639D01*
X142092000Y-116594639D01*
X142092000Y-116767861D01*
X142119098Y-116938951D01*
X142172627Y-117103695D01*
X142251268Y-117258038D01*
X142353086Y-117398178D01*
X142475572Y-117520664D01*
X142615712Y-117622482D01*
X142770055Y-117701123D01*
X142934799Y-117754652D01*
X143105889Y-117781750D01*
X143105890Y-117781750D01*
X143279110Y-117781750D01*
X143279111Y-117781750D01*
X143450201Y-117754652D01*
X143614945Y-117701123D01*
X143769288Y-117622482D01*
X143909428Y-117520664D01*
X144031914Y-117398178D01*
X144133732Y-117258038D01*
X144212373Y-117103695D01*
X144265902Y-116938951D01*
X144293000Y-116767861D01*
X144293000Y-116594639D01*
X155744500Y-116594639D01*
X155744500Y-116767861D01*
X155771598Y-116938951D01*
X155825127Y-117103695D01*
X155903768Y-117258038D01*
X156005586Y-117398178D01*
X156128072Y-117520664D01*
X156268212Y-117622482D01*
X156422555Y-117701123D01*
X156587299Y-117754652D01*
X156758389Y-117781750D01*
X156758390Y-117781750D01*
X156931610Y-117781750D01*
X156931611Y-117781750D01*
X157102701Y-117754652D01*
X157267445Y-117701123D01*
X157421788Y-117622482D01*
X157561928Y-117520664D01*
X157684414Y-117398178D01*
X157786232Y-117258038D01*
X157864873Y-117103695D01*
X157918402Y-116938951D01*
X157945500Y-116767861D01*
X157945500Y-116594639D01*
X157935854Y-116533736D01*
X159674500Y-116533736D01*
X159674500Y-116828763D01*
X159706571Y-117072363D01*
X159713007Y-117121243D01*
X159787212Y-117398180D01*
X159789361Y-117406201D01*
X159789364Y-117406211D01*
X159902254Y-117678750D01*
X159902258Y-117678760D01*
X160049761Y-117934243D01*
X160229352Y-118168290D01*
X160229358Y-118168297D01*
X160437952Y-118376891D01*
X160437959Y-118376897D01*
X160672006Y-118556488D01*
X160927489Y-118703991D01*
X160927490Y-118703991D01*
X160927493Y-118703993D01*
X161200048Y-118816889D01*
X161485007Y-118893243D01*
X161777494Y-118931750D01*
X161777501Y-118931750D01*
X162072499Y-118931750D01*
X162072506Y-118931750D01*
X162364993Y-118893243D01*
X162649952Y-118816889D01*
X162922507Y-118703993D01*
X163177994Y-118556488D01*
X163412042Y-118376896D01*
X163620646Y-118168292D01*
X163800238Y-117934244D01*
X163947743Y-117678757D01*
X164060639Y-117406202D01*
X164136993Y-117121243D01*
X164175500Y-116828756D01*
X164175500Y-116594639D01*
X165904500Y-116594639D01*
X165904500Y-116767861D01*
X165931598Y-116938951D01*
X165985127Y-117103695D01*
X166063768Y-117258038D01*
X166165586Y-117398178D01*
X166288072Y-117520664D01*
X166428212Y-117622482D01*
X166582555Y-117701123D01*
X166747299Y-117754652D01*
X166918389Y-117781750D01*
X166918390Y-117781750D01*
X167091610Y-117781750D01*
X167091611Y-117781750D01*
X167262701Y-117754652D01*
X167427445Y-117701123D01*
X167581788Y-117622482D01*
X167721928Y-117520664D01*
X167844414Y-117398178D01*
X167946232Y-117258038D01*
X168024873Y-117103695D01*
X168078402Y-116938951D01*
X168105500Y-116767861D01*
X168105500Y-116594639D01*
X168078402Y-116423549D01*
X168024873Y-116258805D01*
X167946232Y-116104462D01*
X167844414Y-115964322D01*
X167721928Y-115841836D01*
X167581788Y-115740018D01*
X167427445Y-115661377D01*
X167262701Y-115607848D01*
X167262699Y-115607847D01*
X167262698Y-115607847D01*
X167131271Y-115587031D01*
X167091611Y-115580750D01*
X166918389Y-115580750D01*
X166878728Y-115587031D01*
X166747302Y-115607847D01*
X166582552Y-115661378D01*
X166428211Y-115740018D01*
X166372115Y-115780775D01*
X166288072Y-115841836D01*
X166288070Y-115841838D01*
X166288069Y-115841838D01*
X166165588Y-115964319D01*
X166165588Y-115964320D01*
X166165586Y-115964322D01*
X166121859Y-116024506D01*
X166063768Y-116104461D01*
X165985128Y-116258802D01*
X165931597Y-116423552D01*
X165904500Y-116594639D01*
X164175500Y-116594639D01*
X164175500Y-116533744D01*
X164136993Y-116241257D01*
X164060639Y-115956298D01*
X163947743Y-115683743D01*
X163897604Y-115596900D01*
X163800238Y-115428256D01*
X163620647Y-115194209D01*
X163620641Y-115194202D01*
X163412047Y-114985608D01*
X163412040Y-114985602D01*
X163177993Y-114806011D01*
X162922510Y-114658508D01*
X162922500Y-114658504D01*
X162649961Y-114545614D01*
X162649954Y-114545612D01*
X162649952Y-114545611D01*
X162364993Y-114469257D01*
X162316113Y-114462821D01*
X162072513Y-114430750D01*
X162072506Y-114430750D01*
X161777494Y-114430750D01*
X161777486Y-114430750D01*
X161499085Y-114467403D01*
X161485007Y-114469257D01*
X161310861Y-114515919D01*
X161200048Y-114545611D01*
X161200038Y-114545614D01*
X160927499Y-114658504D01*
X160927489Y-114658508D01*
X160672006Y-114806011D01*
X160437959Y-114985602D01*
X160437952Y-114985608D01*
X160229358Y-115194202D01*
X160229352Y-115194209D01*
X160049761Y-115428256D01*
X159902258Y-115683739D01*
X159902254Y-115683749D01*
X159789364Y-115956288D01*
X159789361Y-115956298D01*
X159713008Y-116241254D01*
X159713006Y-116241265D01*
X159674500Y-116533736D01*
X157935854Y-116533736D01*
X157918402Y-116423549D01*
X157864873Y-116258805D01*
X157786232Y-116104462D01*
X157684414Y-115964322D01*
X157631882Y-115911790D01*
X157598397Y-115850467D01*
X157603381Y-115780775D01*
X157645253Y-115724842D01*
X157710717Y-115700425D01*
X157738961Y-115701636D01*
X157989072Y-115741250D01*
X158240928Y-115741250D01*
X158489669Y-115701852D01*
X158729184Y-115624030D01*
X158953575Y-115509696D01*
X158953581Y-115509692D01*
X159055697Y-115435500D01*
X159055698Y-115435500D01*
X158439025Y-114818828D01*
X158470258Y-114805891D01*
X158593097Y-114723813D01*
X158697563Y-114619347D01*
X158779641Y-114496508D01*
X158792578Y-114465275D01*
X159409250Y-115081948D01*
X159409250Y-115081947D01*
X159483442Y-114979831D01*
X159483446Y-114979825D01*
X159597780Y-114755434D01*
X159675602Y-114515919D01*
X159715000Y-114267178D01*
X159715000Y-114015321D01*
X159675602Y-113766580D01*
X159597780Y-113527065D01*
X159483442Y-113302666D01*
X159409250Y-113200551D01*
X159409250Y-113200550D01*
X158792577Y-113817223D01*
X158779641Y-113785992D01*
X158697563Y-113663153D01*
X158593097Y-113558687D01*
X158470258Y-113476609D01*
X158439024Y-113463671D01*
X159055698Y-112846998D01*
X158953583Y-112772807D01*
X158729184Y-112658469D01*
X158489669Y-112580647D01*
X158240928Y-112541250D01*
X157989072Y-112541250D01*
X157740330Y-112580647D01*
X157500815Y-112658469D01*
X157276413Y-112772809D01*
X157174301Y-112846997D01*
X157174300Y-112846998D01*
X157790974Y-113463671D01*
X157759742Y-113476609D01*
X157636903Y-113558687D01*
X157532437Y-113663153D01*
X157450359Y-113785992D01*
X157437421Y-113817224D01*
X156820748Y-113200550D01*
X156820747Y-113200551D01*
X156746559Y-113302663D01*
X156632219Y-113527065D01*
X156554397Y-113766580D01*
X156515000Y-114015321D01*
X156515000Y-114267178D01*
X156554397Y-114515919D01*
X156632219Y-114755434D01*
X156746557Y-114979833D01*
X156820748Y-115081947D01*
X156820748Y-115081948D01*
X157437421Y-114465274D01*
X157450359Y-114496508D01*
X157532437Y-114619347D01*
X157636903Y-114723813D01*
X157759742Y-114805891D01*
X157790974Y-114818827D01*
X157174300Y-115435500D01*
X157176598Y-115464699D01*
X157162233Y-115533077D01*
X157113181Y-115582833D01*
X157045016Y-115598171D01*
X157033583Y-115596900D01*
X156931611Y-115580750D01*
X156758389Y-115580750D01*
X156718728Y-115587031D01*
X156587302Y-115607847D01*
X156422552Y-115661378D01*
X156268211Y-115740018D01*
X156212115Y-115780775D01*
X156128072Y-115841836D01*
X156128070Y-115841838D01*
X156128069Y-115841838D01*
X156005588Y-115964319D01*
X156005588Y-115964320D01*
X156005586Y-115964322D01*
X155961859Y-116024506D01*
X155903768Y-116104461D01*
X155825128Y-116258802D01*
X155771597Y-116423552D01*
X155744500Y-116594639D01*
X144293000Y-116594639D01*
X144265902Y-116423549D01*
X144212373Y-116258805D01*
X144133732Y-116104462D01*
X144031914Y-115964322D01*
X143909428Y-115841836D01*
X143769288Y-115740018D01*
X143614945Y-115661377D01*
X143450201Y-115607848D01*
X143450199Y-115607847D01*
X143450198Y-115607847D01*
X143318771Y-115587031D01*
X143279111Y-115580750D01*
X143105889Y-115580750D01*
X143066228Y-115587031D01*
X142934802Y-115607847D01*
X142770052Y-115661378D01*
X142615711Y-115740018D01*
X142559615Y-115780775D01*
X142475572Y-115841836D01*
X142475570Y-115841838D01*
X142475569Y-115841838D01*
X142353088Y-115964319D01*
X142353088Y-115964320D01*
X142353086Y-115964322D01*
X142309359Y-116024506D01*
X142251268Y-116104461D01*
X142172628Y-116258802D01*
X142119097Y-116423552D01*
X142092000Y-116594639D01*
X140363000Y-116594639D01*
X140363000Y-116533744D01*
X140324493Y-116241257D01*
X140248139Y-115956298D01*
X140135243Y-115683743D01*
X140085104Y-115596900D01*
X139987738Y-115428256D01*
X139808147Y-115194209D01*
X139808141Y-115194202D01*
X139599547Y-114985608D01*
X139599540Y-114985602D01*
X139365493Y-114806011D01*
X139110010Y-114658508D01*
X139110000Y-114658504D01*
X138837461Y-114545614D01*
X138837454Y-114545612D01*
X138837452Y-114545611D01*
X138552493Y-114469257D01*
X138503613Y-114462821D01*
X138260013Y-114430750D01*
X138260006Y-114430750D01*
X137964994Y-114430750D01*
X137964986Y-114430750D01*
X137686585Y-114467403D01*
X137672507Y-114469257D01*
X137498361Y-114515919D01*
X137387548Y-114545611D01*
X137387538Y-114545614D01*
X137114999Y-114658504D01*
X137114989Y-114658508D01*
X136859506Y-114806011D01*
X136625459Y-114985602D01*
X136625452Y-114985608D01*
X136416858Y-115194202D01*
X136416852Y-115194209D01*
X136237261Y-115428256D01*
X136089758Y-115683739D01*
X136089754Y-115683749D01*
X135976864Y-115956288D01*
X135976861Y-115956298D01*
X135900508Y-116241254D01*
X135900506Y-116241265D01*
X135862000Y-116533736D01*
X134123354Y-116533736D01*
X134105902Y-116423549D01*
X134052373Y-116258805D01*
X133973732Y-116104462D01*
X133871914Y-115964322D01*
X133819382Y-115911790D01*
X133785897Y-115850467D01*
X133790881Y-115780775D01*
X133832753Y-115724842D01*
X133898217Y-115700425D01*
X133926461Y-115701636D01*
X134176572Y-115741250D01*
X134428428Y-115741250D01*
X134677169Y-115701852D01*
X134916684Y-115624030D01*
X135141075Y-115509696D01*
X135141081Y-115509692D01*
X135243197Y-115435500D01*
X135243198Y-115435500D01*
X134626525Y-114818828D01*
X134657758Y-114805891D01*
X134780597Y-114723813D01*
X134885063Y-114619347D01*
X134967141Y-114496508D01*
X134980078Y-114465275D01*
X135596750Y-115081948D01*
X135596750Y-115081947D01*
X135670942Y-114979831D01*
X135670946Y-114979825D01*
X135785280Y-114755434D01*
X135863102Y-114515919D01*
X135902500Y-114267178D01*
X135902500Y-114015321D01*
X135863102Y-113766580D01*
X135785280Y-113527065D01*
X135670942Y-113302666D01*
X135596750Y-113200551D01*
X135596750Y-113200550D01*
X134980077Y-113817223D01*
X134967141Y-113785992D01*
X134885063Y-113663153D01*
X134780597Y-113558687D01*
X134657758Y-113476609D01*
X134626524Y-113463671D01*
X135243198Y-112846998D01*
X135141083Y-112772807D01*
X134916684Y-112658469D01*
X134677169Y-112580647D01*
X134428428Y-112541250D01*
X134176572Y-112541250D01*
X133927830Y-112580647D01*
X133688315Y-112658469D01*
X133463913Y-112772809D01*
X133361801Y-112846997D01*
X133361800Y-112846998D01*
X133978474Y-113463671D01*
X133947242Y-113476609D01*
X133824403Y-113558687D01*
X133719937Y-113663153D01*
X133637859Y-113785992D01*
X133624921Y-113817224D01*
X133008248Y-113200550D01*
X133008247Y-113200551D01*
X132934059Y-113302663D01*
X132819719Y-113527065D01*
X132741897Y-113766580D01*
X132702500Y-114015321D01*
X132702500Y-114267178D01*
X132741897Y-114515919D01*
X132819719Y-114755434D01*
X132934057Y-114979833D01*
X133008248Y-115081947D01*
X133008248Y-115081948D01*
X133624921Y-114465274D01*
X133637859Y-114496508D01*
X133719937Y-114619347D01*
X133824403Y-114723813D01*
X133947242Y-114805891D01*
X133978474Y-114818827D01*
X133361800Y-115435500D01*
X133364098Y-115464699D01*
X133349733Y-115533077D01*
X133300681Y-115582833D01*
X133232516Y-115598171D01*
X133221083Y-115596900D01*
X133119111Y-115580750D01*
X132945889Y-115580750D01*
X132906228Y-115587031D01*
X132774802Y-115607847D01*
X132610052Y-115661378D01*
X132455711Y-115740018D01*
X132399615Y-115780775D01*
X132315572Y-115841836D01*
X132315570Y-115841838D01*
X132315569Y-115841838D01*
X132193088Y-115964319D01*
X132193088Y-115964320D01*
X132193086Y-115964322D01*
X132149359Y-116024506D01*
X132091268Y-116104461D01*
X132012628Y-116258802D01*
X131959097Y-116423552D01*
X131932000Y-116594639D01*
X120480500Y-116594639D01*
X120453402Y-116423549D01*
X120399873Y-116258805D01*
X120321232Y-116104462D01*
X120219414Y-115964322D01*
X120096928Y-115841836D01*
X119956788Y-115740018D01*
X119802445Y-115661377D01*
X119637701Y-115607848D01*
X119637699Y-115607847D01*
X119637698Y-115607847D01*
X119506271Y-115587031D01*
X119466611Y-115580750D01*
X119293389Y-115580750D01*
X119253728Y-115587031D01*
X119122302Y-115607847D01*
X118957552Y-115661378D01*
X118803211Y-115740018D01*
X118747115Y-115780775D01*
X118663072Y-115841836D01*
X118663070Y-115841838D01*
X118663069Y-115841838D01*
X118540588Y-115964319D01*
X118540588Y-115964320D01*
X118540586Y-115964322D01*
X118496859Y-116024506D01*
X118438768Y-116104461D01*
X118360128Y-116258802D01*
X118306597Y-116423552D01*
X118279500Y-116594639D01*
X116550500Y-116594639D01*
X116550500Y-116533744D01*
X116511993Y-116241257D01*
X116435639Y-115956298D01*
X116322743Y-115683743D01*
X116272604Y-115596900D01*
X116175238Y-115428256D01*
X115995647Y-115194209D01*
X115995641Y-115194202D01*
X115787047Y-114985608D01*
X115787040Y-114985602D01*
X115552993Y-114806011D01*
X115297510Y-114658508D01*
X115297500Y-114658504D01*
X115024961Y-114545614D01*
X115024954Y-114545612D01*
X115024952Y-114545611D01*
X114739993Y-114469257D01*
X114691113Y-114462821D01*
X114447513Y-114430750D01*
X114447506Y-114430750D01*
X114152494Y-114430750D01*
X114152486Y-114430750D01*
X113874085Y-114467403D01*
X113860007Y-114469257D01*
X113685861Y-114515919D01*
X113575048Y-114545611D01*
X113575038Y-114545614D01*
X113302499Y-114658504D01*
X113302489Y-114658508D01*
X113047006Y-114806011D01*
X112812959Y-114985602D01*
X112812952Y-114985608D01*
X112604358Y-115194202D01*
X112604352Y-115194209D01*
X112424761Y-115428256D01*
X112277258Y-115683739D01*
X112277254Y-115683749D01*
X112164364Y-115956288D01*
X112164361Y-115956298D01*
X112088008Y-116241254D01*
X112088006Y-116241265D01*
X112049500Y-116533736D01*
X110310854Y-116533736D01*
X110293402Y-116423549D01*
X110239873Y-116258805D01*
X110161232Y-116104462D01*
X110059414Y-115964322D01*
X110006882Y-115911790D01*
X109973397Y-115850467D01*
X109978381Y-115780775D01*
X110020253Y-115724842D01*
X110085717Y-115700425D01*
X110113961Y-115701636D01*
X110364072Y-115741250D01*
X110615928Y-115741250D01*
X110864669Y-115701852D01*
X111104184Y-115624030D01*
X111328575Y-115509696D01*
X111328581Y-115509692D01*
X111430697Y-115435500D01*
X111430698Y-115435500D01*
X110814025Y-114818828D01*
X110845258Y-114805891D01*
X110968097Y-114723813D01*
X111072563Y-114619347D01*
X111154641Y-114496508D01*
X111167577Y-114465275D01*
X111784250Y-115081948D01*
X111784250Y-115081947D01*
X111858442Y-114979831D01*
X111858446Y-114979825D01*
X111972780Y-114755434D01*
X112050602Y-114515919D01*
X112090000Y-114267178D01*
X112090000Y-114015321D01*
X112050602Y-113766580D01*
X111972780Y-113527065D01*
X111858442Y-113302666D01*
X111784250Y-113200551D01*
X111784250Y-113200550D01*
X111167577Y-113817223D01*
X111154641Y-113785992D01*
X111072563Y-113663153D01*
X110968097Y-113558687D01*
X110845258Y-113476609D01*
X110814024Y-113463671D01*
X111430698Y-112846998D01*
X111328583Y-112772807D01*
X111104184Y-112658469D01*
X110864669Y-112580647D01*
X110615928Y-112541250D01*
X110364072Y-112541250D01*
X110115330Y-112580647D01*
X109875815Y-112658469D01*
X109651413Y-112772809D01*
X109549301Y-112846997D01*
X109549300Y-112846998D01*
X110165974Y-113463671D01*
X110134742Y-113476609D01*
X110011903Y-113558687D01*
X109907437Y-113663153D01*
X109825359Y-113785992D01*
X109812421Y-113817224D01*
X109195748Y-113200550D01*
X109195747Y-113200551D01*
X109121559Y-113302663D01*
X109007219Y-113527065D01*
X108929397Y-113766580D01*
X108890000Y-114015321D01*
X108890000Y-114267178D01*
X108929397Y-114515919D01*
X109007219Y-114755434D01*
X109121557Y-114979833D01*
X109195748Y-115081947D01*
X109195748Y-115081948D01*
X109812421Y-114465274D01*
X109825359Y-114496508D01*
X109907437Y-114619347D01*
X110011903Y-114723813D01*
X110134742Y-114805891D01*
X110165974Y-114818827D01*
X109549300Y-115435500D01*
X109551598Y-115464699D01*
X109537233Y-115533077D01*
X109488181Y-115582833D01*
X109420016Y-115598171D01*
X109408583Y-115596900D01*
X109306611Y-115580750D01*
X109133389Y-115580750D01*
X109093728Y-115587031D01*
X108962302Y-115607847D01*
X108797552Y-115661378D01*
X108643211Y-115740018D01*
X108587115Y-115780775D01*
X108503072Y-115841836D01*
X108503070Y-115841838D01*
X108503069Y-115841838D01*
X108380588Y-115964319D01*
X108380588Y-115964320D01*
X108380586Y-115964322D01*
X108336859Y-116024506D01*
X108278768Y-116104461D01*
X108200128Y-116258802D01*
X108146597Y-116423552D01*
X108119500Y-116594639D01*
X88606750Y-116594639D01*
X88606750Y-111475288D01*
X115239500Y-111475288D01*
X115239500Y-111727211D01*
X115278910Y-111976035D01*
X115356760Y-112215633D01*
X115471132Y-112440098D01*
X115619201Y-112643899D01*
X115619205Y-112643904D01*
X115797345Y-112822044D01*
X115797350Y-112822048D01*
X115975117Y-112951202D01*
X116001155Y-112970120D01*
X116144184Y-113042997D01*
X116225616Y-113084489D01*
X116225618Y-113084489D01*
X116225621Y-113084491D01*
X116465215Y-113162340D01*
X116714038Y-113201750D01*
X116714039Y-113201750D01*
X116965961Y-113201750D01*
X116965962Y-113201750D01*
X117214785Y-113162340D01*
X117454379Y-113084491D01*
X117678845Y-112970120D01*
X117882656Y-112822043D01*
X118060793Y-112643906D01*
X118208870Y-112440095D01*
X118323241Y-112215629D01*
X118401090Y-111976035D01*
X118440500Y-111727212D01*
X118440500Y-111475288D01*
X139052000Y-111475288D01*
X139052000Y-111727211D01*
X139091410Y-111976035D01*
X139169260Y-112215633D01*
X139283632Y-112440098D01*
X139431701Y-112643899D01*
X139431705Y-112643904D01*
X139609845Y-112822044D01*
X139609850Y-112822048D01*
X139787617Y-112951202D01*
X139813655Y-112970120D01*
X139956684Y-113042997D01*
X140038116Y-113084489D01*
X140038118Y-113084489D01*
X140038121Y-113084491D01*
X140277715Y-113162340D01*
X140526538Y-113201750D01*
X140526539Y-113201750D01*
X140778461Y-113201750D01*
X140778462Y-113201750D01*
X141027285Y-113162340D01*
X141266879Y-113084491D01*
X141491345Y-112970120D01*
X141695156Y-112822043D01*
X141873293Y-112643906D01*
X142021370Y-112440095D01*
X142135741Y-112215629D01*
X142213590Y-111976035D01*
X142253000Y-111727212D01*
X142253000Y-111475288D01*
X162864500Y-111475288D01*
X162864500Y-111727211D01*
X162903910Y-111976035D01*
X162981760Y-112215633D01*
X163096132Y-112440098D01*
X163244201Y-112643899D01*
X163244205Y-112643904D01*
X163422345Y-112822044D01*
X163422350Y-112822048D01*
X163600117Y-112951202D01*
X163626155Y-112970120D01*
X163769184Y-113042997D01*
X163850616Y-113084489D01*
X163850618Y-113084489D01*
X163850621Y-113084491D01*
X164090215Y-113162340D01*
X164339038Y-113201750D01*
X164339039Y-113201750D01*
X164590961Y-113201750D01*
X164590962Y-113201750D01*
X164839785Y-113162340D01*
X165079379Y-113084491D01*
X165303845Y-112970120D01*
X165507656Y-112822043D01*
X165685793Y-112643906D01*
X165833870Y-112440095D01*
X165948241Y-112215629D01*
X166026090Y-111976035D01*
X166065500Y-111727212D01*
X166065500Y-111475288D01*
X166026090Y-111226465D01*
X165948241Y-110986871D01*
X165948239Y-110986868D01*
X165948239Y-110986866D01*
X165906747Y-110905434D01*
X165833870Y-110762405D01*
X165814952Y-110736367D01*
X165685798Y-110558600D01*
X165685794Y-110558595D01*
X165507654Y-110380455D01*
X165507649Y-110380451D01*
X165303848Y-110232382D01*
X165303847Y-110232381D01*
X165303845Y-110232380D01*
X165233747Y-110196663D01*
X165079383Y-110118010D01*
X164839785Y-110040160D01*
X164590962Y-110000750D01*
X164339038Y-110000750D01*
X164214626Y-110020455D01*
X164090214Y-110040160D01*
X163850616Y-110118010D01*
X163626151Y-110232382D01*
X163422350Y-110380451D01*
X163422345Y-110380455D01*
X163244205Y-110558595D01*
X163244201Y-110558600D01*
X163096132Y-110762401D01*
X162981760Y-110986866D01*
X162903910Y-111226464D01*
X162864500Y-111475288D01*
X142253000Y-111475288D01*
X142213590Y-111226465D01*
X142135741Y-110986871D01*
X142135739Y-110986868D01*
X142135739Y-110986866D01*
X142094247Y-110905434D01*
X142021370Y-110762405D01*
X142002452Y-110736367D01*
X141873298Y-110558600D01*
X141873294Y-110558595D01*
X141695154Y-110380455D01*
X141695149Y-110380451D01*
X141491348Y-110232382D01*
X141491347Y-110232381D01*
X141491345Y-110232380D01*
X141421247Y-110196663D01*
X141266883Y-110118010D01*
X141027285Y-110040160D01*
X140778462Y-110000750D01*
X140526538Y-110000750D01*
X140402126Y-110020455D01*
X140277714Y-110040160D01*
X140038116Y-110118010D01*
X139813651Y-110232382D01*
X139609850Y-110380451D01*
X139609845Y-110380455D01*
X139431705Y-110558595D01*
X139431701Y-110558600D01*
X139283632Y-110762401D01*
X139169260Y-110986866D01*
X139091410Y-111226464D01*
X139052000Y-111475288D01*
X118440500Y-111475288D01*
X118401090Y-111226465D01*
X118323241Y-110986871D01*
X118323239Y-110986868D01*
X118323239Y-110986866D01*
X118281747Y-110905434D01*
X118208870Y-110762405D01*
X118189952Y-110736367D01*
X118060798Y-110558600D01*
X118060794Y-110558595D01*
X117882654Y-110380455D01*
X117882649Y-110380451D01*
X117678848Y-110232382D01*
X117678847Y-110232381D01*
X117678845Y-110232380D01*
X117608747Y-110196663D01*
X117454383Y-110118010D01*
X117214785Y-110040160D01*
X116965962Y-110000750D01*
X116714038Y-110000750D01*
X116589626Y-110020455D01*
X116465214Y-110040160D01*
X116225616Y-110118010D01*
X116001151Y-110232382D01*
X115797350Y-110380451D01*
X115797345Y-110380455D01*
X115619205Y-110558595D01*
X115619201Y-110558600D01*
X115471132Y-110762401D01*
X115356760Y-110986866D01*
X115278910Y-111226464D01*
X115239500Y-111475288D01*
X88606750Y-111475288D01*
X88606750Y-90400889D01*
X131932000Y-90400889D01*
X131932000Y-90574111D01*
X131959098Y-90745201D01*
X132012627Y-90909945D01*
X132091268Y-91064288D01*
X132193086Y-91204428D01*
X132315572Y-91326914D01*
X132455712Y-91428732D01*
X132610055Y-91507373D01*
X132774799Y-91560902D01*
X132945889Y-91588000D01*
X132945890Y-91588000D01*
X133119110Y-91588000D01*
X133119111Y-91588000D01*
X133290201Y-91560902D01*
X133454945Y-91507373D01*
X133609288Y-91428732D01*
X133749428Y-91326914D01*
X133871914Y-91204428D01*
X133973732Y-91064288D01*
X134052373Y-90909945D01*
X134105902Y-90745201D01*
X134133000Y-90574111D01*
X134133000Y-90400889D01*
X134123354Y-90339986D01*
X135862000Y-90339986D01*
X135862000Y-90635013D01*
X135894071Y-90878613D01*
X135900507Y-90927493D01*
X135974712Y-91204430D01*
X135976861Y-91212451D01*
X135976864Y-91212461D01*
X136089754Y-91485000D01*
X136089758Y-91485010D01*
X136237261Y-91740493D01*
X136416852Y-91974540D01*
X136416858Y-91974547D01*
X136625452Y-92183141D01*
X136625459Y-92183147D01*
X136859506Y-92362738D01*
X137114989Y-92510241D01*
X137114990Y-92510241D01*
X137114993Y-92510243D01*
X137387548Y-92623139D01*
X137672507Y-92699493D01*
X137964994Y-92738000D01*
X137965001Y-92738000D01*
X138259999Y-92738000D01*
X138260006Y-92738000D01*
X138552493Y-92699493D01*
X138837452Y-92623139D01*
X139110007Y-92510243D01*
X139365494Y-92362738D01*
X139599542Y-92183146D01*
X139808146Y-91974542D01*
X139987738Y-91740494D01*
X140135243Y-91485007D01*
X140248139Y-91212452D01*
X140324493Y-90927493D01*
X140363000Y-90635006D01*
X140363000Y-90400889D01*
X142092000Y-90400889D01*
X142092000Y-90574111D01*
X142119098Y-90745201D01*
X142172627Y-90909945D01*
X142251268Y-91064288D01*
X142353086Y-91204428D01*
X142475572Y-91326914D01*
X142615712Y-91428732D01*
X142770055Y-91507373D01*
X142934799Y-91560902D01*
X143105889Y-91588000D01*
X143105890Y-91588000D01*
X143279110Y-91588000D01*
X143279111Y-91588000D01*
X143450201Y-91560902D01*
X143614945Y-91507373D01*
X143769288Y-91428732D01*
X143909428Y-91326914D01*
X144031914Y-91204428D01*
X144133732Y-91064288D01*
X144212373Y-90909945D01*
X144265902Y-90745201D01*
X144293000Y-90574111D01*
X144293000Y-90400889D01*
X144265902Y-90229799D01*
X144212373Y-90065055D01*
X144133732Y-89910712D01*
X144031914Y-89770572D01*
X143909428Y-89648086D01*
X143769288Y-89546268D01*
X143614945Y-89467627D01*
X143450201Y-89414098D01*
X143450199Y-89414097D01*
X143450198Y-89414097D01*
X143318771Y-89393281D01*
X143279111Y-89387000D01*
X143105889Y-89387000D01*
X143066228Y-89393281D01*
X142934802Y-89414097D01*
X142770052Y-89467628D01*
X142615711Y-89546268D01*
X142559615Y-89587025D01*
X142475572Y-89648086D01*
X142475570Y-89648088D01*
X142475569Y-89648088D01*
X142353088Y-89770569D01*
X142353088Y-89770570D01*
X142353086Y-89770572D01*
X142309359Y-89830756D01*
X142251268Y-89910711D01*
X142172628Y-90065052D01*
X142119097Y-90229802D01*
X142092000Y-90400889D01*
X140363000Y-90400889D01*
X140363000Y-90339994D01*
X140324493Y-90047507D01*
X140248139Y-89762548D01*
X140135243Y-89489993D01*
X140085104Y-89403150D01*
X139987738Y-89234506D01*
X139808147Y-89000459D01*
X139808141Y-89000452D01*
X139599547Y-88791858D01*
X139599540Y-88791852D01*
X139365493Y-88612261D01*
X139110010Y-88464758D01*
X139110000Y-88464754D01*
X138837461Y-88351864D01*
X138837454Y-88351862D01*
X138837452Y-88351861D01*
X138552493Y-88275507D01*
X138503613Y-88269071D01*
X138260013Y-88237000D01*
X138260006Y-88237000D01*
X137964994Y-88237000D01*
X137964986Y-88237000D01*
X137686585Y-88273653D01*
X137672507Y-88275507D01*
X137498361Y-88322169D01*
X137387548Y-88351861D01*
X137387538Y-88351864D01*
X137114999Y-88464754D01*
X137114989Y-88464758D01*
X136859506Y-88612261D01*
X136625459Y-88791852D01*
X136625452Y-88791858D01*
X136416858Y-89000452D01*
X136416852Y-89000459D01*
X136237261Y-89234506D01*
X136089758Y-89489989D01*
X136089754Y-89489999D01*
X135976864Y-89762538D01*
X135976861Y-89762548D01*
X135900508Y-90047504D01*
X135900506Y-90047515D01*
X135862000Y-90339986D01*
X134123354Y-90339986D01*
X134105902Y-90229799D01*
X134052373Y-90065055D01*
X133973732Y-89910712D01*
X133871914Y-89770572D01*
X133819382Y-89718040D01*
X133785897Y-89656717D01*
X133790881Y-89587025D01*
X133832753Y-89531092D01*
X133898217Y-89506675D01*
X133926461Y-89507886D01*
X134176572Y-89547500D01*
X134428428Y-89547500D01*
X134677169Y-89508102D01*
X134916684Y-89430280D01*
X135141075Y-89315946D01*
X135141081Y-89315942D01*
X135243197Y-89241750D01*
X135243198Y-89241750D01*
X134626525Y-88625078D01*
X134657758Y-88612141D01*
X134780597Y-88530063D01*
X134885063Y-88425597D01*
X134967141Y-88302758D01*
X134980078Y-88271525D01*
X135596750Y-88888198D01*
X135596750Y-88888197D01*
X135670942Y-88786081D01*
X135670946Y-88786075D01*
X135785280Y-88561684D01*
X135863102Y-88322169D01*
X135902500Y-88073428D01*
X135902500Y-87821571D01*
X135863102Y-87572830D01*
X135785280Y-87333315D01*
X135670942Y-87108916D01*
X135596750Y-87006801D01*
X135596750Y-87006800D01*
X134980077Y-87623473D01*
X134967141Y-87592242D01*
X134885063Y-87469403D01*
X134780597Y-87364937D01*
X134657758Y-87282859D01*
X134626524Y-87269921D01*
X135243198Y-86653248D01*
X135141083Y-86579057D01*
X134916684Y-86464719D01*
X134677169Y-86386897D01*
X134428428Y-86347500D01*
X134176572Y-86347500D01*
X133927830Y-86386897D01*
X133688315Y-86464719D01*
X133463913Y-86579059D01*
X133361801Y-86653247D01*
X133361800Y-86653248D01*
X133978474Y-87269921D01*
X133947242Y-87282859D01*
X133824403Y-87364937D01*
X133719937Y-87469403D01*
X133637859Y-87592242D01*
X133624921Y-87623474D01*
X133008248Y-87006800D01*
X133008247Y-87006801D01*
X132934059Y-87108913D01*
X132819719Y-87333315D01*
X132741897Y-87572830D01*
X132702500Y-87821571D01*
X132702500Y-88073428D01*
X132741897Y-88322169D01*
X132819719Y-88561684D01*
X132934057Y-88786083D01*
X133008248Y-88888197D01*
X133008248Y-88888198D01*
X133624921Y-88271524D01*
X133637859Y-88302758D01*
X133719937Y-88425597D01*
X133824403Y-88530063D01*
X133947242Y-88612141D01*
X133978474Y-88625077D01*
X133361800Y-89241750D01*
X133364098Y-89270949D01*
X133349733Y-89339327D01*
X133300681Y-89389083D01*
X133232516Y-89404421D01*
X133221083Y-89403150D01*
X133119111Y-89387000D01*
X132945889Y-89387000D01*
X132906228Y-89393281D01*
X132774802Y-89414097D01*
X132610052Y-89467628D01*
X132455711Y-89546268D01*
X132399615Y-89587025D01*
X132315572Y-89648086D01*
X132315570Y-89648088D01*
X132315569Y-89648088D01*
X132193088Y-89770569D01*
X132193088Y-89770570D01*
X132193086Y-89770572D01*
X132149359Y-89830756D01*
X132091268Y-89910711D01*
X132012628Y-90065052D01*
X131959097Y-90229802D01*
X131932000Y-90400889D01*
X88606750Y-90400889D01*
X88606750Y-85281538D01*
X139052000Y-85281538D01*
X139052000Y-85533461D01*
X139091410Y-85782285D01*
X139169260Y-86021883D01*
X139283632Y-86246348D01*
X139431701Y-86450149D01*
X139431705Y-86450154D01*
X139609845Y-86628294D01*
X139609850Y-86628298D01*
X139787617Y-86757452D01*
X139813655Y-86776370D01*
X139956684Y-86849247D01*
X140038116Y-86890739D01*
X140038118Y-86890739D01*
X140038121Y-86890741D01*
X140277715Y-86968590D01*
X140526538Y-87008000D01*
X140526539Y-87008000D01*
X140778461Y-87008000D01*
X140778462Y-87008000D01*
X141027285Y-86968590D01*
X141266879Y-86890741D01*
X141491345Y-86776370D01*
X141695156Y-86628293D01*
X141873293Y-86450156D01*
X142021370Y-86246345D01*
X142135741Y-86021879D01*
X142213590Y-85782285D01*
X142253000Y-85533462D01*
X142253000Y-85281538D01*
X142213590Y-85032715D01*
X142135741Y-84793121D01*
X142135739Y-84793118D01*
X142135739Y-84793116D01*
X142094247Y-84711684D01*
X142021370Y-84568655D01*
X142002452Y-84542617D01*
X141873298Y-84364850D01*
X141873294Y-84364845D01*
X141695154Y-84186705D01*
X141695149Y-84186701D01*
X141491348Y-84038632D01*
X141491347Y-84038631D01*
X141491345Y-84038630D01*
X141421247Y-84002913D01*
X141266883Y-83924260D01*
X141027285Y-83846410D01*
X140778462Y-83807000D01*
X140526538Y-83807000D01*
X140402126Y-83826705D01*
X140277714Y-83846410D01*
X140038116Y-83924260D01*
X139813651Y-84038632D01*
X139609850Y-84186701D01*
X139609845Y-84186705D01*
X139431705Y-84364845D01*
X139431701Y-84364850D01*
X139283632Y-84568651D01*
X139169260Y-84793116D01*
X139091410Y-85032714D01*
X139052000Y-85281538D01*
X88606750Y-85281538D01*
X88606750Y-64220639D01*
X89786000Y-64220639D01*
X89786000Y-64419360D01*
X89817087Y-64615637D01*
X89878493Y-64804629D01*
X89878494Y-64804632D01*
X89968713Y-64981694D01*
X90085519Y-65142464D01*
X90226036Y-65282981D01*
X90386806Y-65399787D01*
X90473649Y-65444035D01*
X90563867Y-65490005D01*
X90563870Y-65490006D01*
X90658366Y-65520709D01*
X90752864Y-65551413D01*
X90949139Y-65582500D01*
X90949140Y-65582500D01*
X91147860Y-65582500D01*
X91147861Y-65582500D01*
X91344136Y-65551413D01*
X91533132Y-65490005D01*
X91710194Y-65399787D01*
X91870964Y-65282981D01*
X92011481Y-65142464D01*
X92128287Y-64981694D01*
X92208015Y-64825218D01*
X92255990Y-64774423D01*
X92323811Y-64757628D01*
X92389946Y-64780165D01*
X92428984Y-64825218D01*
X92508713Y-64981694D01*
X92625519Y-65142464D01*
X92766036Y-65282981D01*
X92926806Y-65399787D01*
X93013649Y-65444035D01*
X93103867Y-65490005D01*
X93103870Y-65490006D01*
X93198366Y-65520709D01*
X93292864Y-65551413D01*
X93489139Y-65582500D01*
X93489140Y-65582500D01*
X93687860Y-65582500D01*
X93687861Y-65582500D01*
X93884136Y-65551413D01*
X94073132Y-65490005D01*
X94250194Y-65399787D01*
X94410964Y-65282981D01*
X94551481Y-65142464D01*
X94668287Y-64981694D01*
X94748015Y-64825218D01*
X94795990Y-64774423D01*
X94863811Y-64757628D01*
X94929946Y-64780165D01*
X94968984Y-64825218D01*
X95048713Y-64981694D01*
X95165519Y-65142464D01*
X95306036Y-65282981D01*
X95466806Y-65399787D01*
X95553649Y-65444035D01*
X95643867Y-65490005D01*
X95643870Y-65490006D01*
X95738366Y-65520709D01*
X95832864Y-65551413D01*
X96029139Y-65582500D01*
X96029140Y-65582500D01*
X96227860Y-65582500D01*
X96227861Y-65582500D01*
X96424136Y-65551413D01*
X96613132Y-65490005D01*
X96790194Y-65399787D01*
X96950964Y-65282981D01*
X97091481Y-65142464D01*
X97208287Y-64981694D01*
X97288015Y-64825218D01*
X97335990Y-64774423D01*
X97403811Y-64757628D01*
X97469946Y-64780165D01*
X97508984Y-64825218D01*
X97588713Y-64981694D01*
X97705519Y-65142464D01*
X97846036Y-65282981D01*
X98006806Y-65399787D01*
X98093649Y-65444035D01*
X98183867Y-65490005D01*
X98183870Y-65490006D01*
X98278366Y-65520709D01*
X98372864Y-65551413D01*
X98569139Y-65582500D01*
X98569140Y-65582500D01*
X98767860Y-65582500D01*
X98767861Y-65582500D01*
X98964136Y-65551413D01*
X99153132Y-65490005D01*
X99330194Y-65399787D01*
X99490964Y-65282981D01*
X99631481Y-65142464D01*
X99748287Y-64981694D01*
X99828015Y-64825218D01*
X99875990Y-64774423D01*
X99943811Y-64757628D01*
X100009946Y-64780165D01*
X100048984Y-64825218D01*
X100128713Y-64981694D01*
X100245519Y-65142464D01*
X100386036Y-65282981D01*
X100546806Y-65399787D01*
X100633649Y-65444035D01*
X100723867Y-65490005D01*
X100723870Y-65490006D01*
X100818366Y-65520709D01*
X100912864Y-65551413D01*
X101109139Y-65582500D01*
X101109140Y-65582500D01*
X101307860Y-65582500D01*
X101307861Y-65582500D01*
X101504136Y-65551413D01*
X101693132Y-65490005D01*
X101870194Y-65399787D01*
X102030964Y-65282981D01*
X102171481Y-65142464D01*
X102288287Y-64981694D01*
X102368015Y-64825218D01*
X102415990Y-64774423D01*
X102483811Y-64757628D01*
X102549946Y-64780165D01*
X102588984Y-64825218D01*
X102668713Y-64981694D01*
X102785519Y-65142464D01*
X102926036Y-65282981D01*
X103086806Y-65399787D01*
X103173649Y-65444035D01*
X103263867Y-65490005D01*
X103263870Y-65490006D01*
X103358366Y-65520709D01*
X103452864Y-65551413D01*
X103649139Y-65582500D01*
X103649140Y-65582500D01*
X103847860Y-65582500D01*
X103847861Y-65582500D01*
X104044136Y-65551413D01*
X104233132Y-65490005D01*
X104410194Y-65399787D01*
X104570964Y-65282981D01*
X104711481Y-65142464D01*
X104828287Y-64981694D01*
X104908015Y-64825218D01*
X104955990Y-64774423D01*
X105023811Y-64757628D01*
X105089946Y-64780165D01*
X105128984Y-64825218D01*
X105208713Y-64981694D01*
X105325519Y-65142464D01*
X105466036Y-65282981D01*
X105626806Y-65399787D01*
X105713649Y-65444035D01*
X105803867Y-65490005D01*
X105803870Y-65490006D01*
X105898366Y-65520709D01*
X105992864Y-65551413D01*
X106189139Y-65582500D01*
X106189140Y-65582500D01*
X106387860Y-65582500D01*
X106387861Y-65582500D01*
X106584136Y-65551413D01*
X106773132Y-65490005D01*
X106950194Y-65399787D01*
X107110964Y-65282981D01*
X107251481Y-65142464D01*
X107368287Y-64981694D01*
X107458505Y-64804632D01*
X107519913Y-64615636D01*
X107551000Y-64419361D01*
X107551000Y-64220639D01*
X107519913Y-64024364D01*
X107473777Y-63882371D01*
X107458506Y-63835370D01*
X107458505Y-63835367D01*
X107378895Y-63679126D01*
X107368287Y-63658306D01*
X107251481Y-63497536D01*
X107110964Y-63357019D01*
X106950194Y-63240213D01*
X106773132Y-63149994D01*
X106773129Y-63149993D01*
X106584137Y-63088587D01*
X106485998Y-63073043D01*
X106387861Y-63057500D01*
X106189139Y-63057500D01*
X106123714Y-63067862D01*
X105992862Y-63088587D01*
X105803870Y-63149993D01*
X105803867Y-63149994D01*
X105626805Y-63240213D01*
X105466033Y-63357021D01*
X105325521Y-63497533D01*
X105208713Y-63658305D01*
X105128985Y-63814780D01*
X105081010Y-63865576D01*
X105013189Y-63882371D01*
X104947054Y-63859833D01*
X104908015Y-63814780D01*
X104838895Y-63679126D01*
X104828287Y-63658306D01*
X104711481Y-63497536D01*
X104570964Y-63357019D01*
X104410194Y-63240213D01*
X104233132Y-63149994D01*
X104233129Y-63149993D01*
X104044137Y-63088587D01*
X103945998Y-63073043D01*
X103847861Y-63057500D01*
X103649139Y-63057500D01*
X103583714Y-63067862D01*
X103452862Y-63088587D01*
X103263870Y-63149993D01*
X103263867Y-63149994D01*
X103086805Y-63240213D01*
X102926033Y-63357021D01*
X102785521Y-63497533D01*
X102668713Y-63658305D01*
X102588985Y-63814780D01*
X102541010Y-63865576D01*
X102473189Y-63882371D01*
X102407054Y-63859833D01*
X102368015Y-63814780D01*
X102298895Y-63679126D01*
X102288287Y-63658306D01*
X102171481Y-63497536D01*
X102030964Y-63357019D01*
X101870194Y-63240213D01*
X101693132Y-63149994D01*
X101693129Y-63149993D01*
X101504137Y-63088587D01*
X101405998Y-63073043D01*
X101307861Y-63057500D01*
X101109139Y-63057500D01*
X101043714Y-63067862D01*
X100912862Y-63088587D01*
X100723870Y-63149993D01*
X100723867Y-63149994D01*
X100546805Y-63240213D01*
X100386033Y-63357021D01*
X100245521Y-63497533D01*
X100128713Y-63658305D01*
X100048985Y-63814780D01*
X100001010Y-63865576D01*
X99933189Y-63882371D01*
X99867054Y-63859833D01*
X99828015Y-63814780D01*
X99758895Y-63679126D01*
X99748287Y-63658306D01*
X99631481Y-63497536D01*
X99490964Y-63357019D01*
X99330194Y-63240213D01*
X99153132Y-63149994D01*
X99153129Y-63149993D01*
X98964137Y-63088587D01*
X98865998Y-63073043D01*
X98767861Y-63057500D01*
X98569139Y-63057500D01*
X98503714Y-63067862D01*
X98372862Y-63088587D01*
X98183870Y-63149993D01*
X98183867Y-63149994D01*
X98006805Y-63240213D01*
X97846033Y-63357021D01*
X97705521Y-63497533D01*
X97588713Y-63658305D01*
X97508985Y-63814780D01*
X97461010Y-63865576D01*
X97393189Y-63882371D01*
X97327054Y-63859833D01*
X97288015Y-63814780D01*
X97218895Y-63679126D01*
X97208287Y-63658306D01*
X97091481Y-63497536D01*
X96950964Y-63357019D01*
X96790194Y-63240213D01*
X96613132Y-63149994D01*
X96613129Y-63149993D01*
X96424137Y-63088587D01*
X96325998Y-63073043D01*
X96227861Y-63057500D01*
X96029139Y-63057500D01*
X95963714Y-63067862D01*
X95832862Y-63088587D01*
X95643870Y-63149993D01*
X95643867Y-63149994D01*
X95466805Y-63240213D01*
X95306033Y-63357021D01*
X95165521Y-63497533D01*
X95048713Y-63658305D01*
X94968985Y-63814780D01*
X94921010Y-63865576D01*
X94853189Y-63882371D01*
X94787054Y-63859833D01*
X94748015Y-63814780D01*
X94678895Y-63679126D01*
X94668287Y-63658306D01*
X94551481Y-63497536D01*
X94410964Y-63357019D01*
X94250194Y-63240213D01*
X94073132Y-63149994D01*
X94073129Y-63149993D01*
X93884137Y-63088587D01*
X93785998Y-63073043D01*
X93687861Y-63057500D01*
X93489139Y-63057500D01*
X93423714Y-63067862D01*
X93292862Y-63088587D01*
X93103870Y-63149993D01*
X93103867Y-63149994D01*
X92926805Y-63240213D01*
X92766033Y-63357021D01*
X92625521Y-63497533D01*
X92508713Y-63658305D01*
X92428985Y-63814780D01*
X92381010Y-63865576D01*
X92313189Y-63882371D01*
X92247054Y-63859833D01*
X92208015Y-63814780D01*
X92138895Y-63679126D01*
X92128287Y-63658306D01*
X92011481Y-63497536D01*
X91870964Y-63357019D01*
X91710194Y-63240213D01*
X91533132Y-63149994D01*
X91533129Y-63149993D01*
X91344137Y-63088587D01*
X91245998Y-63073043D01*
X91147861Y-63057500D01*
X90949139Y-63057500D01*
X90883714Y-63067862D01*
X90752862Y-63088587D01*
X90563870Y-63149993D01*
X90563867Y-63149994D01*
X90386805Y-63240213D01*
X90226033Y-63357021D01*
X90085521Y-63497533D01*
X89968713Y-63658305D01*
X89878494Y-63835367D01*
X89878493Y-63835370D01*
X89817087Y-64024362D01*
X89786000Y-64220639D01*
X88606750Y-64220639D01*
X88606750Y-55536213D01*
X117712000Y-55536213D01*
X117712000Y-55748786D01*
X117739405Y-55921818D01*
X117745254Y-55958743D01*
X117792082Y-56102865D01*
X117810944Y-56160914D01*
X117907451Y-56350320D01*
X118032390Y-56522286D01*
X118182713Y-56672609D01*
X118354682Y-56797550D01*
X118363446Y-56802016D01*
X118414242Y-56849991D01*
X118431036Y-56917812D01*
X118408498Y-56983947D01*
X118363446Y-57022984D01*
X118354682Y-57027449D01*
X118182713Y-57152390D01*
X118032390Y-57302713D01*
X117907451Y-57474679D01*
X117810944Y-57664085D01*
X117745253Y-57866260D01*
X117712000Y-58076213D01*
X117712000Y-58288786D01*
X117745253Y-58498739D01*
X117810944Y-58700914D01*
X117907451Y-58890320D01*
X118032390Y-59062286D01*
X118182713Y-59212609D01*
X118354682Y-59337550D01*
X118363446Y-59342016D01*
X118414242Y-59389991D01*
X118431036Y-59457812D01*
X118408498Y-59523947D01*
X118363446Y-59562984D01*
X118354682Y-59567449D01*
X118182713Y-59692390D01*
X118032390Y-59842713D01*
X117907451Y-60014679D01*
X117810944Y-60204085D01*
X117745253Y-60406260D01*
X117712000Y-60616213D01*
X117712000Y-60828786D01*
X117738294Y-60994803D01*
X117745254Y-61038743D01*
X117793573Y-61187454D01*
X117810944Y-61240914D01*
X117907451Y-61430320D01*
X118032390Y-61602286D01*
X118182713Y-61752609D01*
X118354679Y-61877548D01*
X118354681Y-61877549D01*
X118354684Y-61877551D01*
X118544088Y-61974057D01*
X118746257Y-62039746D01*
X118956213Y-62073000D01*
X118956214Y-62073000D01*
X119168786Y-62073000D01*
X119168787Y-62073000D01*
X119378743Y-62039746D01*
X119580912Y-61974057D01*
X119770316Y-61877551D01*
X119792289Y-61861586D01*
X119942286Y-61752609D01*
X119942288Y-61752606D01*
X119942292Y-61752604D01*
X120092604Y-61602292D01*
X120106340Y-61583385D01*
X172298250Y-61583385D01*
X172298250Y-63679120D01*
X172298251Y-63679126D01*
X172304658Y-63738733D01*
X172354952Y-63873578D01*
X172354956Y-63873585D01*
X172441202Y-63988794D01*
X172441205Y-63988797D01*
X172556414Y-64075043D01*
X172556421Y-64075047D01*
X172691267Y-64125341D01*
X172691266Y-64125341D01*
X172698194Y-64126085D01*
X172750877Y-64131750D01*
X176046622Y-64131749D01*
X176106233Y-64125341D01*
X176241081Y-64075046D01*
X176356296Y-63988796D01*
X176442546Y-63873581D01*
X176492841Y-63738733D01*
X176499250Y-63679123D01*
X176499249Y-61583378D01*
X176492841Y-61523767D01*
X176486652Y-61507174D01*
X176442547Y-61388921D01*
X176442543Y-61388914D01*
X176356297Y-61273705D01*
X176356294Y-61273702D01*
X176241085Y-61187456D01*
X176241078Y-61187452D01*
X176106232Y-61137158D01*
X176106233Y-61137158D01*
X176046633Y-61130751D01*
X176046631Y-61130750D01*
X176046623Y-61130750D01*
X176046614Y-61130750D01*
X172750879Y-61130750D01*
X172750873Y-61130751D01*
X172691266Y-61137158D01*
X172556421Y-61187452D01*
X172556414Y-61187456D01*
X172441205Y-61273702D01*
X172441202Y-61273705D01*
X172354956Y-61388914D01*
X172354952Y-61388921D01*
X172304658Y-61523767D01*
X172298251Y-61583366D01*
X172298251Y-61583373D01*
X172298250Y-61583385D01*
X120106340Y-61583385D01*
X120112424Y-61575011D01*
X120161711Y-61507174D01*
X120161713Y-61507171D01*
X120164188Y-61503763D01*
X120217551Y-61430316D01*
X120314057Y-61240912D01*
X120379746Y-61038743D01*
X120413000Y-60828787D01*
X120413000Y-60616213D01*
X120379746Y-60406257D01*
X120314057Y-60204088D01*
X120217551Y-60014684D01*
X120217549Y-60014681D01*
X120217548Y-60014679D01*
X120092609Y-59842713D01*
X119942286Y-59692390D01*
X119770320Y-59567451D01*
X119769615Y-59567091D01*
X119761554Y-59562985D01*
X119757773Y-59559413D01*
X119752756Y-59558041D01*
X119732632Y-59535670D01*
X119710759Y-59515012D01*
X119709508Y-59509963D01*
X119706029Y-59506095D01*
X119701195Y-59476394D01*
X119693963Y-59447192D01*
X119695640Y-59442267D01*
X119694805Y-59437132D01*
X119706795Y-59409533D01*
X119716499Y-59381056D01*
X119721131Y-59376534D01*
X119722646Y-59373049D01*
X119733898Y-59364073D01*
X119748886Y-59349446D01*
X119754997Y-59345355D01*
X119770316Y-59337551D01*
X119812968Y-59306562D01*
X119812978Y-59306556D01*
X119942285Y-59212609D01*
X119942283Y-59212609D01*
X119942292Y-59212604D01*
X120092604Y-59062292D01*
X120092606Y-59062288D01*
X120092609Y-59062286D01*
X120217548Y-58890320D01*
X120217547Y-58890320D01*
X120217551Y-58890316D01*
X120314057Y-58700912D01*
X120379746Y-58498743D01*
X120413000Y-58288787D01*
X120413000Y-58076213D01*
X120379746Y-57866257D01*
X120314057Y-57664088D01*
X120217551Y-57474684D01*
X120217549Y-57474681D01*
X120217548Y-57474679D01*
X120092609Y-57302713D01*
X119942286Y-57152390D01*
X119770320Y-57027451D01*
X119769615Y-57027091D01*
X119761554Y-57022985D01*
X119710759Y-56975012D01*
X119693963Y-56907192D01*
X119716499Y-56841056D01*
X119761554Y-56802015D01*
X119770316Y-56797551D01*
X119871217Y-56724243D01*
X119942286Y-56672609D01*
X119942288Y-56672606D01*
X119942292Y-56672604D01*
X120092604Y-56522292D01*
X120092606Y-56522288D01*
X120092609Y-56522286D01*
X120217548Y-56350320D01*
X120217547Y-56350320D01*
X120217551Y-56350316D01*
X120314057Y-56160912D01*
X120379746Y-55958743D01*
X120413000Y-55748787D01*
X120413000Y-55536213D01*
X120379746Y-55326257D01*
X120314057Y-55124088D01*
X120217551Y-54934684D01*
X120217549Y-54934681D01*
X120217548Y-54934679D01*
X120092609Y-54762713D01*
X119978681Y-54648785D01*
X119945196Y-54587462D01*
X119950180Y-54517770D01*
X119992052Y-54461837D01*
X120023029Y-54444922D01*
X120154586Y-54395854D01*
X120154593Y-54395850D01*
X120269687Y-54309690D01*
X120269690Y-54309687D01*
X120355850Y-54194593D01*
X120355854Y-54194586D01*
X120406096Y-54059879D01*
X120406098Y-54059872D01*
X120412499Y-54000344D01*
X120412500Y-54000327D01*
X120412500Y-53483385D01*
X165398250Y-53483385D01*
X165398250Y-55579120D01*
X165398251Y-55579126D01*
X165404658Y-55638733D01*
X165454952Y-55773578D01*
X165454956Y-55773585D01*
X165541202Y-55888794D01*
X165541203Y-55888794D01*
X165541204Y-55888796D01*
X165585313Y-55921816D01*
X165659349Y-55977240D01*
X165701219Y-56033174D01*
X165706203Y-56102865D01*
X165685355Y-56149391D01*
X165615837Y-56245074D01*
X165508647Y-56455447D01*
X165435684Y-56680002D01*
X165398750Y-56913197D01*
X165398750Y-57149302D01*
X165435684Y-57382497D01*
X165508647Y-57607052D01*
X165615837Y-57817424D01*
X165676088Y-57900354D01*
X165676090Y-57900355D01*
X166415787Y-57160658D01*
X166432825Y-57224243D01*
X166498651Y-57338257D01*
X166591743Y-57431349D01*
X166705757Y-57497175D01*
X166769340Y-57514212D01*
X166023030Y-58260521D01*
X166013855Y-58304197D01*
X165977489Y-58345865D01*
X165921240Y-58386732D01*
X165754235Y-58553737D01*
X165754235Y-58553738D01*
X165754233Y-58553740D01*
X165694612Y-58635800D01*
X165615407Y-58744816D01*
X165508183Y-58955253D01*
X165435196Y-59179881D01*
X165398250Y-59413152D01*
X165398250Y-59649347D01*
X165435196Y-59882618D01*
X165508183Y-60107246D01*
X165557527Y-60204088D01*
X165615407Y-60317683D01*
X165754233Y-60508760D01*
X165921240Y-60675767D01*
X166112317Y-60814593D01*
X166211741Y-60865252D01*
X166322753Y-60921816D01*
X166322755Y-60921816D01*
X166322758Y-60921818D01*
X166443162Y-60960939D01*
X166547381Y-60994803D01*
X166780653Y-61031750D01*
X166780658Y-61031750D01*
X167016847Y-61031750D01*
X167250118Y-60994803D01*
X167474742Y-60921818D01*
X167685183Y-60814593D01*
X167876260Y-60675767D01*
X168043267Y-60508760D01*
X168182093Y-60317683D01*
X168289318Y-60107242D01*
X168362303Y-59882618D01*
X168368624Y-59842708D01*
X168399250Y-59649347D01*
X168399250Y-59413152D01*
X179898250Y-59413152D01*
X179898250Y-59649347D01*
X179935196Y-59882618D01*
X180008183Y-60107246D01*
X180057527Y-60204088D01*
X180115407Y-60317683D01*
X180254233Y-60508760D01*
X180421240Y-60675767D01*
X180612317Y-60814593D01*
X180711741Y-60865252D01*
X180822753Y-60921816D01*
X180822755Y-60921816D01*
X180822758Y-60921818D01*
X180943162Y-60960939D01*
X181047381Y-60994803D01*
X181280653Y-61031750D01*
X181280658Y-61031750D01*
X181516847Y-61031750D01*
X181750118Y-60994803D01*
X181974742Y-60921818D01*
X182185183Y-60814593D01*
X182376260Y-60675767D01*
X182543267Y-60508760D01*
X182682093Y-60317683D01*
X182789318Y-60107242D01*
X182862303Y-59882618D01*
X182868624Y-59842708D01*
X182899250Y-59649347D01*
X182899250Y-59413152D01*
X182862303Y-59179881D01*
X182789316Y-58955253D01*
X182682092Y-58744816D01*
X182543267Y-58553740D01*
X182376260Y-58386733D01*
X182185183Y-58247907D01*
X181974746Y-58140683D01*
X181750118Y-58067696D01*
X181516847Y-58030750D01*
X181516842Y-58030750D01*
X181280658Y-58030750D01*
X181280653Y-58030750D01*
X181047381Y-58067696D01*
X180822753Y-58140683D01*
X180612316Y-58247907D01*
X180503300Y-58327112D01*
X180421240Y-58386733D01*
X180421238Y-58386735D01*
X180421237Y-58386735D01*
X180254235Y-58553737D01*
X180254235Y-58553738D01*
X180254233Y-58553740D01*
X180194612Y-58635800D01*
X180115407Y-58744816D01*
X180008183Y-58955253D01*
X179935196Y-59179881D01*
X179898250Y-59413152D01*
X168399250Y-59413152D01*
X168362303Y-59179881D01*
X168289316Y-58955253D01*
X168182092Y-58744816D01*
X168043267Y-58553740D01*
X167876260Y-58386733D01*
X167820009Y-58345864D01*
X167777345Y-58290534D01*
X167772652Y-58258705D01*
X167028158Y-57514212D01*
X167091743Y-57497175D01*
X167205757Y-57431349D01*
X167298849Y-57338257D01*
X167364675Y-57224243D01*
X167381712Y-57160659D01*
X168121408Y-57900355D01*
X168121408Y-57900354D01*
X168181664Y-57817419D01*
X168181668Y-57817413D01*
X168288852Y-57607052D01*
X168361815Y-57382497D01*
X168398750Y-57149302D01*
X168398750Y-56913197D01*
X168361815Y-56680002D01*
X168288852Y-56455447D01*
X168181664Y-56245078D01*
X168112144Y-56149392D01*
X168088664Y-56083585D01*
X168104489Y-56015531D01*
X168138151Y-55977239D01*
X168141079Y-55975046D01*
X168141081Y-55975046D01*
X168256296Y-55888796D01*
X168342546Y-55773581D01*
X168392841Y-55638733D01*
X168399250Y-55579123D01*
X168399249Y-54413152D01*
X179898250Y-54413152D01*
X179898250Y-54649347D01*
X179935196Y-54882618D01*
X180008183Y-55107246D01*
X180016765Y-55124088D01*
X180115407Y-55317683D01*
X180254233Y-55508760D01*
X180421240Y-55675767D01*
X180612317Y-55814593D01*
X180711741Y-55865252D01*
X180822753Y-55921816D01*
X180822755Y-55921816D01*
X180822758Y-55921818D01*
X180936389Y-55958739D01*
X181047381Y-55994803D01*
X181280653Y-56031750D01*
X181280658Y-56031750D01*
X181516847Y-56031750D01*
X181750118Y-55994803D01*
X181804174Y-55977239D01*
X181974742Y-55921818D01*
X182185183Y-55814593D01*
X182376260Y-55675767D01*
X182543267Y-55508760D01*
X182682093Y-55317683D01*
X182789318Y-55107242D01*
X182862303Y-54882618D01*
X182881295Y-54762708D01*
X182899250Y-54649347D01*
X182899250Y-54413152D01*
X182862303Y-54179881D01*
X182828439Y-54075662D01*
X182789318Y-53955258D01*
X182789316Y-53955255D01*
X182789316Y-53955253D01*
X182682092Y-53744816D01*
X182543267Y-53553740D01*
X182376260Y-53386733D01*
X182185183Y-53247907D01*
X181974746Y-53140683D01*
X181750118Y-53067696D01*
X181516847Y-53030750D01*
X181516842Y-53030750D01*
X181280658Y-53030750D01*
X181280653Y-53030750D01*
X181047381Y-53067696D01*
X180822753Y-53140683D01*
X180612316Y-53247907D01*
X180503300Y-53327112D01*
X180421240Y-53386733D01*
X180421238Y-53386735D01*
X180421237Y-53386735D01*
X180254235Y-53553737D01*
X180254235Y-53553738D01*
X180254233Y-53553740D01*
X180243564Y-53568425D01*
X180115407Y-53744816D01*
X180008183Y-53955253D01*
X179935196Y-54179881D01*
X179898250Y-54413152D01*
X168399249Y-54413152D01*
X168399249Y-53483378D01*
X168392841Y-53423767D01*
X168387522Y-53409507D01*
X168342547Y-53288921D01*
X168342543Y-53288914D01*
X168256297Y-53173705D01*
X168256294Y-53173702D01*
X168141085Y-53087456D01*
X168141078Y-53087452D01*
X168006232Y-53037158D01*
X168006233Y-53037158D01*
X167946633Y-53030751D01*
X167946631Y-53030750D01*
X167946623Y-53030750D01*
X167946614Y-53030750D01*
X165850879Y-53030750D01*
X165850873Y-53030751D01*
X165791266Y-53037158D01*
X165656421Y-53087452D01*
X165656414Y-53087456D01*
X165541205Y-53173702D01*
X165541202Y-53173705D01*
X165454956Y-53288914D01*
X165454952Y-53288921D01*
X165404658Y-53423767D01*
X165398251Y-53483366D01*
X165398251Y-53483373D01*
X165398250Y-53483385D01*
X120412500Y-53483385D01*
X120412500Y-53352500D01*
X119495512Y-53352500D01*
X119528425Y-53295493D01*
X119562500Y-53168326D01*
X119562500Y-53036674D01*
X119528425Y-52909507D01*
X119495512Y-52852500D01*
X120412500Y-52852500D01*
X120412500Y-52204672D01*
X120412499Y-52204655D01*
X120406098Y-52145127D01*
X120406096Y-52145120D01*
X120355854Y-52010413D01*
X120355850Y-52010406D01*
X120269690Y-51895312D01*
X120269687Y-51895309D01*
X120154593Y-51809149D01*
X120154586Y-51809145D01*
X120019879Y-51758903D01*
X120019872Y-51758901D01*
X119960344Y-51752500D01*
X119312500Y-51752500D01*
X119312500Y-52669488D01*
X119255493Y-52636575D01*
X119128326Y-52602500D01*
X118996674Y-52602500D01*
X118869507Y-52636575D01*
X118812500Y-52669488D01*
X118812500Y-51752500D01*
X118164655Y-51752500D01*
X118105127Y-51758901D01*
X118105120Y-51758903D01*
X117970413Y-51809145D01*
X117970406Y-51809149D01*
X117855312Y-51895309D01*
X117855309Y-51895312D01*
X117769149Y-52010406D01*
X117769145Y-52010413D01*
X117718903Y-52145120D01*
X117718901Y-52145127D01*
X117712500Y-52204655D01*
X117712500Y-52852500D01*
X118629488Y-52852500D01*
X118596575Y-52909507D01*
X118562500Y-53036674D01*
X118562500Y-53168326D01*
X118596575Y-53295493D01*
X118629488Y-53352500D01*
X117712500Y-53352500D01*
X117712500Y-54000344D01*
X117718901Y-54059872D01*
X117718903Y-54059879D01*
X117769145Y-54194586D01*
X117769149Y-54194593D01*
X117855309Y-54309687D01*
X117855312Y-54309690D01*
X117970406Y-54395850D01*
X117970413Y-54395854D01*
X118101970Y-54444922D01*
X118157904Y-54486793D01*
X118182321Y-54552258D01*
X118167469Y-54620531D01*
X118146319Y-54648785D01*
X118032389Y-54762715D01*
X117907451Y-54934679D01*
X117810944Y-55124085D01*
X117745253Y-55326260D01*
X117712000Y-55536213D01*
X88606750Y-55536213D01*
X88606750Y-50383385D01*
X172298250Y-50383385D01*
X172298250Y-52479120D01*
X172298251Y-52479126D01*
X172304658Y-52538733D01*
X172354952Y-52673578D01*
X172354956Y-52673585D01*
X172441202Y-52788794D01*
X172441205Y-52788797D01*
X172556414Y-52875043D01*
X172556421Y-52875047D01*
X172691267Y-52925341D01*
X172691266Y-52925341D01*
X172698194Y-52926085D01*
X172750877Y-52931750D01*
X176046622Y-52931749D01*
X176106233Y-52925341D01*
X176241081Y-52875046D01*
X176356296Y-52788796D01*
X176442546Y-52673581D01*
X176492841Y-52538733D01*
X176499250Y-52479123D01*
X176499249Y-50383378D01*
X176492841Y-50323767D01*
X176488233Y-50311413D01*
X176442547Y-50188921D01*
X176442543Y-50188914D01*
X176356297Y-50073705D01*
X176356294Y-50073702D01*
X176241085Y-49987456D01*
X176241078Y-49987452D01*
X176106232Y-49937158D01*
X176106233Y-49937158D01*
X176046633Y-49930751D01*
X176046631Y-49930750D01*
X176046623Y-49930750D01*
X176046614Y-49930750D01*
X172750879Y-49930750D01*
X172750873Y-49930751D01*
X172691266Y-49937158D01*
X172556421Y-49987452D01*
X172556414Y-49987456D01*
X172441205Y-50073702D01*
X172441202Y-50073705D01*
X172354956Y-50188914D01*
X172354952Y-50188921D01*
X172304658Y-50323767D01*
X172298251Y-50383366D01*
X172298251Y-50383373D01*
X172298250Y-50383385D01*
X88606750Y-50383385D01*
X88606750Y-48980639D01*
X89786000Y-48980639D01*
X89786000Y-49179360D01*
X89817087Y-49375637D01*
X89878493Y-49564629D01*
X89878494Y-49564632D01*
X89968574Y-49741422D01*
X89968713Y-49741694D01*
X90085519Y-49902464D01*
X90226036Y-50042981D01*
X90386806Y-50159787D01*
X90473649Y-50204035D01*
X90563867Y-50250005D01*
X90563870Y-50250006D01*
X90658366Y-50280709D01*
X90752864Y-50311413D01*
X90949139Y-50342500D01*
X90949140Y-50342500D01*
X91147860Y-50342500D01*
X91147861Y-50342500D01*
X91344136Y-50311413D01*
X91533132Y-50250005D01*
X91710194Y-50159787D01*
X91870964Y-50042981D01*
X92011481Y-49902464D01*
X92128287Y-49741694D01*
X92208296Y-49584667D01*
X92256269Y-49533872D01*
X92324090Y-49517077D01*
X92390225Y-49539614D01*
X92429265Y-49584668D01*
X92509141Y-49741432D01*
X92536230Y-49778715D01*
X92536231Y-49778716D01*
X93150852Y-49164094D01*
X93174292Y-49251571D01*
X93232811Y-49352930D01*
X93315570Y-49435689D01*
X93416929Y-49494208D01*
X93504405Y-49517647D01*
X92889783Y-50132268D01*
X92889783Y-50132269D01*
X92927067Y-50159358D01*
X93104062Y-50249542D01*
X93292977Y-50310924D01*
X93489179Y-50342000D01*
X93687821Y-50342000D01*
X93884020Y-50310924D01*
X93884023Y-50310924D01*
X94072937Y-50249542D01*
X94249925Y-50159362D01*
X94287216Y-50132268D01*
X93672595Y-49517647D01*
X93760071Y-49494208D01*
X93861430Y-49435689D01*
X93944189Y-49352930D01*
X94002708Y-49251571D01*
X94026147Y-49164094D01*
X94640768Y-49778715D01*
X94667864Y-49741422D01*
X94747734Y-49584669D01*
X94795708Y-49533872D01*
X94863529Y-49517077D01*
X94929664Y-49539614D01*
X94968703Y-49584667D01*
X95048713Y-49741694D01*
X95165519Y-49902464D01*
X95306036Y-50042981D01*
X95466806Y-50159787D01*
X95553649Y-50204035D01*
X95643867Y-50250005D01*
X95643870Y-50250006D01*
X95738366Y-50280709D01*
X95832864Y-50311413D01*
X96029139Y-50342500D01*
X96029140Y-50342500D01*
X96227860Y-50342500D01*
X96227861Y-50342500D01*
X96424136Y-50311413D01*
X96613132Y-50250005D01*
X96790194Y-50159787D01*
X96950964Y-50042981D01*
X97091481Y-49902464D01*
X97208287Y-49741694D01*
X97288015Y-49585218D01*
X97335990Y-49534423D01*
X97403811Y-49517628D01*
X97469946Y-49540165D01*
X97508984Y-49585218D01*
X97588713Y-49741694D01*
X97705519Y-49902464D01*
X97846036Y-50042981D01*
X98006806Y-50159787D01*
X98093649Y-50204035D01*
X98183867Y-50250005D01*
X98183870Y-50250006D01*
X98278366Y-50280709D01*
X98372864Y-50311413D01*
X98569139Y-50342500D01*
X98569140Y-50342500D01*
X98767860Y-50342500D01*
X98767861Y-50342500D01*
X98964136Y-50311413D01*
X99153132Y-50250005D01*
X99330194Y-50159787D01*
X99490964Y-50042981D01*
X99631481Y-49902464D01*
X99748287Y-49741694D01*
X99828015Y-49585218D01*
X99875990Y-49534423D01*
X99943811Y-49517628D01*
X100009946Y-49540165D01*
X100048984Y-49585218D01*
X100128713Y-49741694D01*
X100245519Y-49902464D01*
X100386036Y-50042981D01*
X100546806Y-50159787D01*
X100633649Y-50204035D01*
X100723867Y-50250005D01*
X100723870Y-50250006D01*
X100818366Y-50280709D01*
X100912864Y-50311413D01*
X101109139Y-50342500D01*
X101109140Y-50342500D01*
X101307860Y-50342500D01*
X101307861Y-50342500D01*
X101504136Y-50311413D01*
X101693132Y-50250005D01*
X101870194Y-50159787D01*
X102030964Y-50042981D01*
X102171481Y-49902464D01*
X102288287Y-49741694D01*
X102368015Y-49585218D01*
X102415990Y-49534423D01*
X102483811Y-49517628D01*
X102549946Y-49540165D01*
X102588984Y-49585218D01*
X102668713Y-49741694D01*
X102785519Y-49902464D01*
X102926036Y-50042981D01*
X103086806Y-50159787D01*
X103173649Y-50204035D01*
X103263867Y-50250005D01*
X103263870Y-50250006D01*
X103358366Y-50280709D01*
X103452864Y-50311413D01*
X103649139Y-50342500D01*
X103649140Y-50342500D01*
X103847860Y-50342500D01*
X103847861Y-50342500D01*
X104044136Y-50311413D01*
X104233132Y-50250005D01*
X104410194Y-50159787D01*
X104570964Y-50042981D01*
X104711481Y-49902464D01*
X104828287Y-49741694D01*
X104908015Y-49585218D01*
X104955990Y-49534423D01*
X105023811Y-49517628D01*
X105089946Y-49540165D01*
X105128984Y-49585218D01*
X105208713Y-49741694D01*
X105325519Y-49902464D01*
X105466036Y-50042981D01*
X105626806Y-50159787D01*
X105713649Y-50204035D01*
X105803867Y-50250005D01*
X105803870Y-50250006D01*
X105898366Y-50280709D01*
X105992864Y-50311413D01*
X106189139Y-50342500D01*
X106189140Y-50342500D01*
X106387860Y-50342500D01*
X106387861Y-50342500D01*
X106584136Y-50311413D01*
X106692080Y-50276339D01*
X106735831Y-50262125D01*
X106773129Y-50250006D01*
X106773132Y-50250005D01*
X106774041Y-50249542D01*
X106950194Y-50159787D01*
X107110964Y-50042981D01*
X107251481Y-49902464D01*
X107368287Y-49741694D01*
X107458505Y-49564632D01*
X107519913Y-49375636D01*
X107551000Y-49179361D01*
X107551000Y-48980639D01*
X107519913Y-48784364D01*
X107458505Y-48595368D01*
X107458505Y-48595367D01*
X107412535Y-48505149D01*
X107368287Y-48418306D01*
X107251481Y-48257536D01*
X107110964Y-48117019D01*
X106950194Y-48000213D01*
X106773132Y-47909994D01*
X106773129Y-47909993D01*
X106584137Y-47848587D01*
X106485998Y-47833043D01*
X106387861Y-47817500D01*
X106189139Y-47817500D01*
X106123714Y-47827862D01*
X105992862Y-47848587D01*
X105803870Y-47909993D01*
X105803867Y-47909994D01*
X105626805Y-48000213D01*
X105466033Y-48117021D01*
X105325521Y-48257533D01*
X105208713Y-48418305D01*
X105128985Y-48574780D01*
X105081010Y-48625576D01*
X105013189Y-48642371D01*
X104947054Y-48619833D01*
X104908015Y-48574780D01*
X104888679Y-48536832D01*
X104828287Y-48418306D01*
X104711481Y-48257536D01*
X104570964Y-48117019D01*
X104410194Y-48000213D01*
X104233132Y-47909994D01*
X104233129Y-47909993D01*
X104044137Y-47848587D01*
X103945998Y-47833043D01*
X103847861Y-47817500D01*
X103649139Y-47817500D01*
X103583714Y-47827862D01*
X103452862Y-47848587D01*
X103263870Y-47909993D01*
X103263867Y-47909994D01*
X103086805Y-48000213D01*
X102926033Y-48117021D01*
X102785521Y-48257533D01*
X102668713Y-48418305D01*
X102588985Y-48574780D01*
X102541010Y-48625576D01*
X102473189Y-48642371D01*
X102407054Y-48619833D01*
X102368015Y-48574780D01*
X102348679Y-48536832D01*
X102288287Y-48418306D01*
X102171481Y-48257536D01*
X102030964Y-48117019D01*
X101870194Y-48000213D01*
X101693132Y-47909994D01*
X101693129Y-47909993D01*
X101504137Y-47848587D01*
X101405998Y-47833043D01*
X101307861Y-47817500D01*
X101109139Y-47817500D01*
X101043714Y-47827862D01*
X100912862Y-47848587D01*
X100723870Y-47909993D01*
X100723867Y-47909994D01*
X100546805Y-48000213D01*
X100386033Y-48117021D01*
X100245521Y-48257533D01*
X100128713Y-48418305D01*
X100048985Y-48574780D01*
X100001010Y-48625576D01*
X99933189Y-48642371D01*
X99867054Y-48619833D01*
X99828015Y-48574780D01*
X99808679Y-48536832D01*
X99748287Y-48418306D01*
X99631481Y-48257536D01*
X99490964Y-48117019D01*
X99330194Y-48000213D01*
X99153132Y-47909994D01*
X99153129Y-47909993D01*
X98964137Y-47848587D01*
X98865998Y-47833043D01*
X98767861Y-47817500D01*
X98569139Y-47817500D01*
X98503714Y-47827862D01*
X98372862Y-47848587D01*
X98183870Y-47909993D01*
X98183867Y-47909994D01*
X98006805Y-48000213D01*
X97846033Y-48117021D01*
X97705521Y-48257533D01*
X97588713Y-48418305D01*
X97508985Y-48574780D01*
X97461010Y-48625576D01*
X97393189Y-48642371D01*
X97327054Y-48619833D01*
X97288015Y-48574780D01*
X97268679Y-48536832D01*
X97208287Y-48418306D01*
X97091481Y-48257536D01*
X96950964Y-48117019D01*
X96790194Y-48000213D01*
X96613132Y-47909994D01*
X96613129Y-47909993D01*
X96424137Y-47848587D01*
X96325998Y-47833043D01*
X96227861Y-47817500D01*
X96029139Y-47817500D01*
X95963714Y-47827862D01*
X95832862Y-47848587D01*
X95643870Y-47909993D01*
X95643867Y-47909994D01*
X95466805Y-48000213D01*
X95306033Y-48117021D01*
X95165521Y-48257533D01*
X95048713Y-48418305D01*
X94968704Y-48575331D01*
X94920729Y-48626127D01*
X94852908Y-48642922D01*
X94786773Y-48620384D01*
X94747734Y-48575331D01*
X94667858Y-48418567D01*
X94640768Y-48381283D01*
X94026147Y-48995904D01*
X94002708Y-48908429D01*
X93944189Y-48807070D01*
X93861430Y-48724311D01*
X93760071Y-48665792D01*
X93672594Y-48642352D01*
X94287216Y-48027731D01*
X94287215Y-48027730D01*
X94249932Y-48000641D01*
X94072937Y-47910457D01*
X93884022Y-47849075D01*
X93687821Y-47818000D01*
X93489179Y-47818000D01*
X93292979Y-47849075D01*
X93292976Y-47849075D01*
X93104062Y-47910457D01*
X92927064Y-48000643D01*
X92889783Y-48027729D01*
X92889782Y-48027730D01*
X93504406Y-48642352D01*
X93416929Y-48665792D01*
X93315570Y-48724311D01*
X93232811Y-48807070D01*
X93174292Y-48908429D01*
X93150852Y-48995905D01*
X92536230Y-48381282D01*
X92536229Y-48381283D01*
X92509141Y-48418566D01*
X92429264Y-48575332D01*
X92381290Y-48626127D01*
X92313469Y-48642922D01*
X92247334Y-48620384D01*
X92208296Y-48575332D01*
X92128287Y-48418306D01*
X92011481Y-48257536D01*
X91870964Y-48117019D01*
X91710194Y-48000213D01*
X91533132Y-47909994D01*
X91533129Y-47909993D01*
X91344137Y-47848587D01*
X91245998Y-47833043D01*
X91147861Y-47817500D01*
X90949139Y-47817500D01*
X90883714Y-47827862D01*
X90752862Y-47848587D01*
X90563870Y-47909993D01*
X90563867Y-47909994D01*
X90386805Y-48000213D01*
X90226033Y-48117021D01*
X90085521Y-48257533D01*
X89968713Y-48418305D01*
X89878494Y-48595367D01*
X89878493Y-48595370D01*
X89817087Y-48784362D01*
X89786000Y-48980639D01*
X88606750Y-48980639D01*
X88606750Y-45868250D01*
X88626435Y-45801211D01*
X88679239Y-45755456D01*
X88730750Y-45744250D01*
X185113000Y-45744250D01*
X185180039Y-45763935D01*
G37*
%TD.AperFunction*%
%TD*%
M02*
