%TF.GenerationSoftware,KiCad,Pcbnew,9.0.6*%
%TF.CreationDate,2025-11-29T00:05:12+05:00*%
%TF.ProjectId,_autosave-hackpad,5f617574-6f73-4617-9665-2d6861636b70,rev?*%
%TF.SameCoordinates,Original*%
%TF.FileFunction,Soldermask,Top*%
%TF.FilePolarity,Negative*%
%FSLAX46Y46*%
G04 Gerber Fmt 4.6, Leading zero omitted, Abs format (unit mm)*
G04 Created by KiCad (PCBNEW 9.0.6) date 2025-11-29 00:05:12*
%MOMM*%
%LPD*%
G01*
G04 APERTURE LIST*
G04 Aperture macros list*
%AMRoundRect*
0 Rectangle with rounded corners*
0 $1 Rounding radius*
0 $2 $3 $4 $5 $6 $7 $8 $9 X,Y pos of 4 corners*
0 Add a 4 corners polygon primitive as box body*
4,1,4,$2,$3,$4,$5,$6,$7,$8,$9,$2,$3,0*
0 Add four circle primitives for the rounded corners*
1,1,$1+$1,$2,$3*
1,1,$1+$1,$4,$5*
1,1,$1+$1,$6,$7*
1,1,$1+$1,$8,$9*
0 Add four rect primitives between the rounded corners*
20,1,$1+$1,$2,$3,$4,$5,0*
20,1,$1+$1,$4,$5,$6,$7,0*
20,1,$1+$1,$6,$7,$8,$9,0*
20,1,$1+$1,$8,$9,$2,$3,0*%
G04 Aperture macros list end*
%ADD10C,1.700000*%
%ADD11R,1.700000X1.700000*%
%ADD12C,4.000000*%
%ADD13C,2.200000*%
%ADD14RoundRect,0.152400X0.609600X-1.063600X0.609600X1.063600X-0.609600X1.063600X-0.609600X-1.063600X0*%
%ADD15C,1.524000*%
%ADD16RoundRect,0.152400X-0.609600X1.063600X-0.609600X-1.063600X0.609600X-1.063600X0.609600X1.063600X0*%
%ADD17R,2.000000X2.000000*%
%ADD18C,2.000000*%
%ADD19R,3.200000X2.000000*%
G04 APERTURE END LIST*
D10*
%TO.C,VCC1*%
X119062500Y-60722500D03*
X119062500Y-58182500D03*
X119062500Y-55642500D03*
D11*
X119062500Y-53102500D03*
%TD*%
D10*
%TO.C,SW6*%
X156845000Y-140493750D03*
D12*
X161925000Y-140493750D03*
D10*
X167005000Y-140493750D03*
D13*
X164465000Y-135413750D03*
X158115000Y-137953750D03*
%TD*%
D10*
%TO.C,SW3*%
X156845000Y-116681250D03*
D12*
X161925000Y-116681250D03*
D10*
X167005000Y-116681250D03*
D13*
X164465000Y-111601250D03*
X158115000Y-114141250D03*
%TD*%
D10*
%TO.C,SW4*%
X109220000Y-140493750D03*
D12*
X114300000Y-140493750D03*
D10*
X119380000Y-140493750D03*
D13*
X116840000Y-135413750D03*
X110490000Y-137953750D03*
%TD*%
D14*
%TO.C,U1*%
X91048500Y-48245000D03*
D15*
X91048500Y-49080000D03*
D14*
X93588500Y-48245000D03*
D15*
X93588500Y-49080000D03*
D14*
X96128500Y-48245000D03*
D15*
X96128500Y-49080000D03*
D14*
X98668500Y-48245000D03*
D15*
X98668500Y-49080000D03*
D14*
X101208500Y-48245000D03*
D15*
X101208500Y-49080000D03*
D14*
X103748500Y-48245000D03*
D15*
X103748500Y-49080000D03*
D14*
X106288500Y-48245000D03*
D15*
X106288500Y-49080000D03*
X106288500Y-64320000D03*
D16*
X106288500Y-65155000D03*
D15*
X103748500Y-64320000D03*
D16*
X103748500Y-65155000D03*
D15*
X101208500Y-64320000D03*
D16*
X101208500Y-65155000D03*
D15*
X98668500Y-64320000D03*
D16*
X98668500Y-65155000D03*
D15*
X96128500Y-64320000D03*
D16*
X96128500Y-65155000D03*
D15*
X93588500Y-64320000D03*
D16*
X93588500Y-65155000D03*
D15*
X91048500Y-64320000D03*
D16*
X91048500Y-65155000D03*
%TD*%
D17*
%TO.C,ENC1*%
X166898750Y-54531250D03*
D18*
X166898750Y-59531250D03*
X166898750Y-57031250D03*
D19*
X174398750Y-51431250D03*
X174398750Y-62631250D03*
D18*
X181398750Y-59531250D03*
X181398750Y-54531250D03*
%TD*%
D10*
%TO.C,SW2*%
X133032500Y-116681250D03*
D12*
X138112500Y-116681250D03*
D10*
X143192500Y-116681250D03*
D13*
X140652500Y-111601250D03*
X134302500Y-114141250D03*
%TD*%
D10*
%TO.C,SW1*%
X109220000Y-116681250D03*
D12*
X114300000Y-116681250D03*
D10*
X119380000Y-116681250D03*
D13*
X116840000Y-111601250D03*
X110490000Y-114141250D03*
%TD*%
D10*
%TO.C,SW7*%
X133032500Y-90487500D03*
D12*
X138112500Y-90487500D03*
D10*
X143192500Y-90487500D03*
D13*
X140652500Y-85407500D03*
X134302500Y-87947500D03*
%TD*%
D10*
%TO.C,SW5*%
X133032500Y-140493750D03*
D12*
X138112500Y-140493750D03*
D10*
X143192500Y-140493750D03*
D13*
X140652500Y-135413750D03*
X134302500Y-137953750D03*
%TD*%
M02*
