M48
; DRILL file {KiCad 9.0.6} date 2025-11-29T00:04:54+0500
; FORMAT={-:-/ absolute / metric / decimal}
; #@! TF.CreationDate,2025-11-29T00:04:54+05:00
; #@! TF.GenerationSoftware,Kicad,Pcbnew,9.0.6
; #@! TF.FileFunction,Plated,1,2,PTH
FMAT,2
METRIC
; #@! TA.AperFunction,Plated,PTH,ComponentDrill
T1C0.889
; #@! TA.AperFunction,Plated,PTH,ComponentDrill
T2C1.000
; #@! TA.AperFunction,Plated,PTH,ComponentDrill
T3C1.500
%
G90
G05
T1
X91.048Y-49.08
X91.048Y-64.32
X93.588Y-49.08
X93.588Y-64.32
X96.129Y-49.08
X96.129Y-64.32
X98.668Y-49.08
X98.668Y-64.32
X101.209Y-49.08
X101.209Y-64.32
X103.748Y-49.08
X103.748Y-64.32
X106.288Y-49.08
X106.288Y-64.32
T2
X119.062Y-53.102
X119.062Y-55.642
X119.062Y-58.182
X119.062Y-60.722
X166.899Y-54.531
X166.899Y-57.031
X166.899Y-59.531
X181.399Y-54.531
X181.399Y-59.531
T3
X110.49Y-114.141
X110.49Y-137.954
X116.84Y-111.601
X116.84Y-135.414
X134.302Y-87.947
X134.302Y-114.141
X134.302Y-137.954
X140.653Y-85.407
X140.653Y-111.601
X140.653Y-135.414
X158.115Y-114.141
X158.115Y-137.954
X164.465Y-111.601
X164.465Y-135.414
T3
G00X173.749Y-51.431
M15
G01X175.049Y-51.431
M16
G05
G00X173.749Y-62.631
M15
G01X175.049Y-62.631
M16
G05
M30
