M48
; DRILL file {KiCad 9.0.6} date 2025-11-29T00:04:54+0500
; FORMAT={-:-/ absolute / metric / decimal}
; #@! TF.CreationDate,2025-11-29T00:04:54+05:00
; #@! TF.GenerationSoftware,Kicad,Pcbnew,9.0.6
; #@! TF.FileFunction,NonPlated,1,2,NPTH
FMAT,2
METRIC
; #@! TA.AperFunction,NonPlated,NPTH,ComponentDrill
T1C1.700
; #@! TA.AperFunction,NonPlated,NPTH,ComponentDrill
T2C4.000
%
G90
G05
T1
X109.22Y-116.681
X109.22Y-140.494
X119.38Y-116.681
X119.38Y-140.494
X133.032Y-90.487
X133.032Y-116.681
X133.032Y-140.494
X143.192Y-90.487
X143.192Y-116.681
X143.192Y-140.494
X156.845Y-116.681
X156.845Y-140.494
X167.005Y-116.681
X167.005Y-140.494
T2
X114.3Y-116.681
X114.3Y-140.494
X138.112Y-90.487
X138.112Y-116.681
X138.112Y-140.494
X161.925Y-116.681
X161.925Y-140.494
M30
